<svg id="Layer_1" data-name="Layer 1" xmlns="http://www.w3.org/2000/svg" viewBox="0 0 1141.64 1622.23"><defs><style>.cls-1,.cls-147,.cls-148,.cls-161,.cls-2,.cls-24,.cls-28,.cls-32,.cls-36,.cls-48,.cls-53,.cls-54,.cls-60{fill:#1488a9;}.cls-1{opacity:0.13;}.cls-2{opacity:0.08;}.cls-3{font-size:34px;}.cls-149,.cls-3,.cls-49,.cls-52{font-family:PlayfairDisplay-Regular, Playfair Display;}.cls-4{letter-spacing:-0.01em;}.cls-5{letter-spacing:-0.02em;}.cls-6{letter-spacing:-0.03em;}.cls-7{letter-spacing:-0.03em;}.cls-8{letter-spacing:-0.07em;}.cls-9{letter-spacing:-0.02em;}.cls-10,.cls-17{font-size:21px;}.cls-10,.cls-147,.cls-156,.cls-166,.cls-17,.cls-53,.cls-54{font-family:Lora-Regular, Lora;}.cls-10,.cls-18{letter-spacing:0.02em;}.cls-11{letter-spacing:0.04em;}.cls-12{letter-spacing:0.01em;}.cls-13{letter-spacing:0.01em;}.cls-14{letter-spacing:0.01em;}.cls-15{letter-spacing:0.01em;}.cls-16{letter-spacing:0.02em;}.cls-17{letter-spacing:0.02em;}.cls-19{letter-spacing:0.01em;}.cls-20{letter-spacing:0.02em;}.cls-21{letter-spacing:0.03em;}.cls-22{letter-spacing:0.01em;}.cls-23{letter-spacing:0.05em;}.cls-24,.cls-28,.cls-32,.cls-36{font-size:25px;}.cls-125,.cls-24,.cls-28,.cls-32,.cls-36{font-family:Lora-Bold, Lora;}.cls-125,.cls-129,.cls-24,.cls-28,.cls-32,.cls-36,.cls-61,.cls-96{font-weight:700;}.cls-24{letter-spacing:0em;}.cls-25{letter-spacing:0.02em;}.cls-26{letter-spacing:0.01em;}.cls-27,.cls-32{letter-spacing:0.02em;}.cls-28{letter-spacing:0.01em;}.cls-29{letter-spacing:0.01em;}.cls-30{letter-spacing:0.02em;}.cls-31{letter-spacing:0.01em;}.cls-33{letter-spacing:0.01em;}.cls-34{letter-spacing:0.01em;}.cls-35{letter-spacing:0.01em;}.cls-37{letter-spacing:-0.04em;}.cls-38{letter-spacing:-0.01em;}.cls-39{letter-spacing:0em;}.cls-40{letter-spacing:-0.01em;}.cls-41{letter-spacing:-0.01em;}.cls-42{letter-spacing:-0.01em;}.cls-43,.cls-45,.cls-46{fill:#b2b2b2;}.cls-43{opacity:0.3;}.cls-44{opacity:0.56;}.cls-46,.cls-52,.cls-58{opacity:0.26;}.cls-47{fill:#ccc;}.cls-48{opacity:0.65;}.cls-49{font-size:208px;letter-spacing:0.02em;}.cls-149,.cls-154,.cls-166,.cls-49,.cls-52{fill:#fff;}.cls-50{letter-spacing:0em;}.cls-51{letter-spacing:0.02em;}.cls-52{font-size:140px;}.cls-52,.cls-61,.cls-66{letter-spacing:0.01em;}.cls-147,.cls-53{font-size:71px;}.cls-125,.cls-54{font-size:20px;}.cls-54,.cls-75{letter-spacing:0.02em;}.cls-55{letter-spacing:0.02em;}.cls-56{letter-spacing:0.02em;}.cls-57{fill:#818181;}.cls-59{fill:#6e6e6e;}.cls-60{opacity:0.11;}.cls-129,.cls-61,.cls-96{font-size:14px;fill:#4c4c4c;font-family:Amiri-Bold, Amiri;}.cls-62{letter-spacing:0.01em;}.cls-63{letter-spacing:-0.01em;}.cls-106,.cls-110,.cls-115,.cls-119,.cls-121,.cls-123,.cls-130,.cls-132,.cls-64,.cls-68,.cls-78{font-family:Amiri-Regular, Amiri;font-weight:400;}.cls-64{letter-spacing:0em;}.cls-65{letter-spacing:0.01em;}.cls-67{letter-spacing:0.01em;}.cls-106,.cls-115,.cls-119,.cls-121,.cls-123,.cls-130,.cls-132,.cls-68,.cls-78{font-size:10px;fill:#000;}.cls-68,.cls-80{letter-spacing:-0.01em;}.cls-115,.cls-69{letter-spacing:-0.03em;}.cls-70{letter-spacing:-0.02em;}.cls-71{letter-spacing:-0.02em;}.cls-72{letter-spacing:-0.01em;}.cls-123,.cls-73{letter-spacing:-0.02em;}.cls-74{letter-spacing:-0.02em;}.cls-76{letter-spacing:0.02em;}.cls-77{letter-spacing:0.02em;}.cls-78{letter-spacing:0em;}.cls-79{letter-spacing:0.01em;}.cls-81{letter-spacing:-0.02em;}.cls-82{letter-spacing:-0.03em;}.cls-83{letter-spacing:-0.04em;}.cls-84{letter-spacing:-0.01em;}.cls-85{letter-spacing:-0.04em;}.cls-86{letter-spacing:-0.03em;}.cls-87{letter-spacing:-0.11em;}.cls-88{letter-spacing:-0.05em;}.cls-106,.cls-89{letter-spacing:-0.03em;}.cls-90{letter-spacing:-0.03em;}.cls-91{letter-spacing:-0.03em;}.cls-92{letter-spacing:-0.01em;}.cls-93{letter-spacing:-0.02em;}.cls-94{letter-spacing:-0.09em;}.cls-95{letter-spacing:-0.04em;}.cls-112,.cls-96{letter-spacing:0em;}.cls-97{letter-spacing:0.01em;}.cls-98{letter-spacing:-0.02em;}.cls-119,.cls-99{letter-spacing:-0.02em;}.cls-100{letter-spacing:-0.03em;}.cls-101{letter-spacing:-0.02em;}.cls-102{letter-spacing:-0.02em;}.cls-103{letter-spacing:-0.03em;}.cls-104{letter-spacing:-0.02em;}.cls-105{letter-spacing:-0.02em;}.cls-107,.cls-121{letter-spacing:-0.01em;}.cls-108{letter-spacing:-0.02em;}.cls-109{letter-spacing:-0.02em;}.cls-110{letter-spacing:0em;}.cls-111{letter-spacing:0em;}.cls-113{letter-spacing:-0.06em;}.cls-114{letter-spacing:-0.05em;}.cls-116{letter-spacing:-0.01em;}.cls-117{letter-spacing:-0.11em;}.cls-118{letter-spacing:-0.06em;}.cls-120{letter-spacing:-0.07em;}.cls-122{letter-spacing:-0.02em;}.cls-124{letter-spacing:-0.03em;}.cls-126{letter-spacing:-0.01em;}.cls-127{letter-spacing:-0.01em;}.cls-128{letter-spacing:0em;}.cls-130{letter-spacing:-0.06em;}.cls-131{letter-spacing:-0.02em;}.cls-133{letter-spacing:0.01em;}.cls-134{letter-spacing:0.01em;}.cls-135{letter-spacing:-0.01em;}.cls-136{letter-spacing:-0.02em;}.cls-137{letter-spacing:-0.01em;}.cls-138{letter-spacing:0em;}.cls-139{letter-spacing:0.01em;}.cls-140{letter-spacing:0em;}.cls-141{letter-spacing:-0.01em;}.cls-142{letter-spacing:-0.01em;}.cls-143{letter-spacing:-0.03em;}.cls-144{letter-spacing:-0.03em;}.cls-145{letter-spacing:0em;}.cls-146{letter-spacing:-0.02em;}.cls-147{letter-spacing:0.02em;}.cls-148{opacity:0.5;}.cls-149{font-size:35px;letter-spacing:0.01em;}.cls-150{letter-spacing:0.01em;}.cls-151{letter-spacing:0.01em;}.cls-152{letter-spacing:0.02em;}.cls-153{letter-spacing:0em;}.cls-155{fill:#73b8cc;}.cls-156{font-size:18px;}.cls-157{letter-spacing:-0.01em;}.cls-158{letter-spacing:-0.01em;}.cls-159{letter-spacing:-0.01em;}.cls-160{letter-spacing:0.02em;}.cls-162{letter-spacing:-0.05em;}.cls-163{letter-spacing:0em;}.cls-164{letter-spacing:-0.01em;}.cls-165{letter-spacing:-0.03em;}.cls-166{font-size:56px;}</style></defs><title>type2</title><g id="Blue_rectangle" data-name="Blue rectangle"><path class="cls-1" d="M718.53-9.15V1453.5h378V1344.84c-37.93-8.47-88-19.66-105.48-24.32-26.59-7.08-17.91-45.7,7.73-41,11.24,2.06,53.65,10.46,97.75,19.25v-8.56c-49.83-10-113.18-22.44-113.18-22.44l0-.1c-17.65-1.48-33.67,2.28-40.65,1,0,0-5.28,5.55-15.54,6.1,23-9.55,24.32-57.8,15.1-63.59,4.94,1.6,7.52,7.14,10.07,16.83s14.47,19,35.36,25.89l43.15,10.33,1.7-8.76a4.06,4.06,0,0,1,4.76-3.13l2,.36a3.93,3.93,0,0,1,3.26,4.58l-1.81,9.32,7.43,1.78,1.64-8.43a4.06,4.06,0,0,1,4.75-3.14l2,.36a3.94,3.94,0,0,1,3.26,4.58l-1.75,9,6.63,1.59,1.6-8.25a4.08,4.08,0,0,1,4.76-3.14l2,.36a3.93,3.93,0,0,1,3.25,4.58l-1.71,8.82,21.86,5.23V-9.15ZM913.12,1244.22c1.86-18.33,14.64-36.36,22.81-35.59s8.32,23.63,6.48,33.31c-2,10.47-9.81,33.64-23.34,30.31C911.12,1270.29,911.26,1262.55,913.12,1244.22Zm-29.66-27a9.51,9.51,0,1,1,9,9.64A9.37,9.37,0,0,1,883.46,1217.25Zm-8.23-28.83a4.69,4.69,0,0,1,5-4.31,4.64,4.64,0,0,1,4.48,4.82,4.69,4.69,0,0,1-5,4.31A4.64,4.64,0,0,1,875.23,1188.42Z" transform="translate(10.4 9.15)"/><path class="cls-1" d="M996.77,1299.86a6.69,6.69,0,0,1,6.17,7.22,6.8,6.8,0,0,1-7.5,5.93,6.68,6.68,0,0,1-6.17-7.22A6.81,6.81,0,0,1,996.77,1299.86Z" transform="translate(10.4 9.15)"/><path class="cls-1" d="M985.4,1305.43a8.25,8.25,0,0,0,0,.86c-5.54-9-.57-22.28,14.39-19.24l96.73,19.3v28.93c-33.86-7.15-78.24-16.58-94.25-20.33a10.26,10.26,0,0,0,4.58-7.5,10.46,10.46,0,0,0-9.66-11.32A10.65,10.65,0,0,0,985.4,1305.43Z" transform="translate(10.4 9.15)"/></g><path class="cls-1" d="M1021.37,818.41c-1.59-1.87-5.32-1.59-7.49-1.68-4.8-.2-10.86-.87-12.31-6.43-1.28-4.91,1.88-10.13,4.65-13.91a1.5,1.5,0,0,0-.23-1.82c-7.06-5.84.06-15.18,7.27-16.32a1.51,1.51,0,0,0,.89-2.21c-2.73-4.56-1.56-9.26-1.74-14.27-.07-1.93-3.07-1.94-3,0,.18,5.07-.69,9.48,1.25,14-8.26,2.57-14.43,13.23-7.71,20.06-3.77,5.52-7.11,13.63-2.13,19.37a14.42,14.42,0,0,0,9.1,4.35c2.07.26,4.18.09,6.26.28,2.81.27,3.07.52,3.17,3.38.85,24.31-6.67,48.26-4.17,72.64.19,1.9,3.2,1.92,3,0-2.39-23.31,3.43-46.61,4.15-69.9C1022.39,823.87,1022.88,820.2,1021.37,818.41Z" transform="translate(10.4 9.15)"/><path class="cls-1" d="M1098.9,911.15c-11-6.7-24.72-8-37.43-8.19-.64-17.81.23-35.62-1.77-53.35-.52-4.62-4.91-31.56,3-31.82a1.52,1.52,0,0,0,1.5-1.5c-.06-2.93-1.07-5.73-1.35-8.6,6.6,1.23,17.19.81,16.58-7.71-.14-1.92-3.14-1.93-3,0,.49,6.85-10.55,5.51-14.75,4.37a1.52,1.52,0,0,0-1.9,1.45c-.14,3.19,1,6.12,1.34,9.24-8.83,2.43-5.63,22.75-5.08,28.62.58,6.16,1.53,12.29,1.78,18.49.56,14.09.1,28.2.68,42.29a1.53,1.53,0,0,0,1.5,1.5c12.58.08,26.35,1.12,37.36,7.8C1099,914.74,1100.55,912.15,1098.9,911.15Z" transform="translate(10.4 9.15)"/><path class="cls-1" d="M972,920.69c-1.2-7.47-9.76-7.53-15.39-5.26-6.54,2.64-11.19,8.29-11.15,15.14-11-4.47-24.3,3.78-30.86,12.51-9.1,12.1-5.32,30.11,3.7,41.07,1.23,1.49,3.34-.64,2.12-2.12-7.91-9.61-11.47-25.65-3.91-36.5,6-8.54,19.75-17.39,29.94-11.1a1.52,1.52,0,0,0,2.21-1.7c-1.26-6.33,2.72-11.63,8.31-14.21,4.08-1.87,11.19-2.93,12.13,3C969.4,923.39,972.29,922.59,972,920.69Z" transform="translate(10.4 9.15)"/><path class="cls-1" d="M962.4,1268.49c-12,0-20.41,9.87-32.15,10.76s-21.42-7.43-25.39-18.08c-4.76-12.74-.94-26.62,4.63-38.46,4-8.52,11.17-23.8,22.08-24.1,1.93,0,1.93-3,0-3-11.39.31-18.58,13.62-23.12,22.46-6.43,12.5-11.4,27.51-7.28,41.51,3.1,10.54,11.12,20.17,22.33,22.28a29.37,29.37,0,0,0,17.18-2.28c7.32-3.19,13.37-8.07,21.72-8.09A1.5,1.5,0,0,0,962.4,1268.49Z" transform="translate(10.4 9.15)"/><path class="cls-1" d="M1089.46,1350.54c-8.77.26-17.15-3.15-25.23-6.16a206.09,206.09,0,0,0-26.69-7.72c-13.49-3.06-27.28-6.09-40.36-10.67-11.37-4-23.35-10.24-28.12-22-6.09-15.08.29-32.52,18.1-33,1.93,0,1.94-3,0-3-10.91.31-20.47,6.56-22.79,17.66a33.91,33.91,0,0,0,8.17,29.26c7,7.6,17,11.83,26.61,15,12.89,4.19,26.25,7.14,39.44,10.16a206.17,206.17,0,0,1,26.35,7.87c7.86,2.92,16,6,24.52,5.7C1091.39,1353.49,1091.4,1350.49,1089.46,1350.54Z" transform="translate(10.4 9.15)"/><path id="blue_trumpet_line" data-name="blue trumpet line" class="cls-2" d="M857.75,1200.06c-2.84-13.07-8.49-25.28-7.75-38.94.1-1.93-2.9-1.92-3,0-1.24,22.89,15.86,44.27,5.72,66.88-9.45,21-35.59,34-56.09,19.37-8.59-6.15-13.89-15.95-17.8-25.53a232.49,232.49,0,0,1-9.78-29.67c-5.84-22.69-7.2-46.33-13.93-68.85-2.25-7.56-5.76-16.52-14.63-18-9.17-1.48-16,9.15-23.64,12.45-1.76.77-.24,3.35,1.52,2.59,8.19-3.56,16.36-16.55,26-10.26,7.73,5,9.14,18.25,11,26.54,5.38,24.55,8.22,49.37,16.08,73.34,5.55,16.91,13.08,36.54,30.84,43.84,19.78,8.12,41.06-2.63,51.1-20.44C859.21,1223,860.26,1211.66,857.75,1200.06Z" transform="translate(10.4 9.15)"/><text class="cls-3" transform="translate(754.9 359.67)"><tspan class="cls-4">T</tspan><tspan x="20.91" y="0">he </tspan><tspan class="cls-5" x="66.57" y="0">H</tspan><tspan x="91.7" y="0">enr</tspan><tspan class="cls-6" x="144.33" y="0">y</tspan><tspan class="cls-7" x="160.58" y="0"> </tspan><tspan class="cls-8" x="167.93" y="0">W</tspan><tspan x="196.35" y="0">ood </tspan><tspan x="0" y="36.5">P</tspan><tspan class="cls-9" x="19.89" y="36.5">r</tspan><tspan x="34.34" y="36.5">omenade Concerts</tspan><tspan class="cls-10"><tspan x="0" y="80.9">An ei</tspan><tspan class="cls-11" x="50.8" y="80.9">g</tspan><tspan class="cls-12" x="63.33" y="80.9">h</tspan><tspan x="76.15" y="80.9">t</tspan><tspan class="cls-13" x="84.69" y="80.9">–</tspan><tspan class="cls-14" x="97.33" y="80.9">w</tspan><tspan class="cls-15" x="114.32" y="80.9">e</tspan><tspan x="126.02" y="80.9">ek summer s</tspan><tspan class="cls-16" x="254.35" y="80.9">e</tspan><tspan x="266.11" y="80.9">ason </tspan></tspan><tspan class="cls-17"><tspan x="0" y="106.1">o</tspan><tspan class="cls-18" x="12.6" y="106.1">f dai</tspan><tspan x="56.61" y="106.1">l</tspan><tspan class="cls-18" x="62.64" y="106.1">y o</tspan><tspan class="cls-19" x="92.8" y="106.1">r</tspan><tspan class="cls-18" x="102.16" y="106.1">chest</tspan><tspan class="cls-19" x="157.25" y="106.1">r</tspan><tspan class="cls-18" x="166.61" y="106.1">al classi</tspan><tspan class="cls-16" x="245.53" y="106.1">c</tspan><tspan class="cls-18" x="257.08" y="106.1">al </tspan></tspan><tspan class="cls-10"><tspan x="0" y="131.3">music </tspan><tspan class="cls-20" x="66.15" y="131.3">c</tspan><tspan x="77.64" y="131.3">on</tspan><tspan class="cls-15" x="103.51" y="131.3">c</tspan><tspan x="115" y="131.3">e</tspan><tspan class="cls-21" x="126.8" y="131.3">r</tspan><tspan x="136.46" y="131.3">ts </tspan><tspan class="cls-22" x="161.09" y="131.3">a</tspan><tspan x="172.2" y="131.3">t the </tspan><tspan class="cls-19" x="225.98" y="131.3">R</tspan><tspan class="cls-13" x="239.44" y="131.3">o</tspan><tspan x="251.98" y="131.3">yal </tspan><tspan x="0" y="156.5">A</tspan><tspan class="cls-23" x="13.57" y="156.5">l</tspan><tspan x="20.35" y="156.5">be</tspan><tspan class="cls-21" x="44.79" y="156.5">r</tspan><tspan x="54.45" y="156.5">t </tspan><tspan class="cls-13" x="68.94" y="156.5">H</tspan><tspan x="85.57" y="156.5">all, London</tspan></tspan><tspan class="cls-24"><tspan x="0" y="223.9">J</tspan><tspan class="cls-25" x="11.25" y="223.9">u</tspan><tspan class="cls-26" x="27.2" y="223.9">l</tspan><tspan class="cls-27" x="35.3" y="223.9">y 18 — September 13</tspan></tspan><tspan class="cls-28"><tspan x="0" y="269.9">R</tspan><tspan class="cls-29" x="17.3" y="269.9">o</tspan><tspan class="cls-30" x="31.8" y="269.9">y</tspan><tspan class="cls-27" x="45.97" y="269.9">al Albert </tspan><tspan class="cls-31" x="159.62" y="269.9">H</tspan><tspan class="cls-27" x="180" y="269.9">all, </tspan></tspan><tspan class="cls-32"><tspan x="0" y="299.9">Kni</tspan><tspan class="cls-29" x="43.37" y="299.9">gh</tspan><tspan x="73.52" y="299.9">tsbrid</tspan><tspan class="cls-33" x="148.37" y="299.9">g</tspan><tspan x="162.62" y="299.9">e</tspan><tspan x="0" y="368.9">Bo</tspan><tspan class="cls-30" x="31.67" y="368.9">o</tspan><tspan x="46.22" y="368.9">king opens </tspan><tspan class="cls-34" x="188.37" y="368.9">M</tspan><tspan class="cls-35" x="212.97" y="368.9">a</tspan><tspan x="226.25" y="368.9">y 17</tspan></tspan></text><text class="cls-36" transform="translate(144.16 342.41)"><tspan class="cls-37">F</tspan><tspan x="13.23" y="0">est</tspan><tspan class="cls-38" x="49.13" y="0">i</tspan><tspan class="cls-39" x="57.13" y="0">v</tspan><tspan x="70.48" y="0">al </tspan><tspan class="cls-40" x="97.95" y="0">H</tspan><tspan x="117.83" y="0">i</tspan><tspan class="cls-41" x="126" y="0">g</tspan><tspan x="139.77" y="0">hli</tspan><tspan class="cls-42" x="171.27" y="0">gh</tspan><tspan x="200.42" y="0">ts</tspan></text><circle class="cls-43" cx="950.99" cy="973.09" r="19.81"/><circle class="cls-43" cx="950.99" cy="1099.1" r="12.2"/><circle class="cls-43" cx="929.12" cy="1117.18" r="7.86"/><circle class="cls-43" cx="940.35" cy="1139.48" r="6.71"/><circle class="cls-43" cx="970.8" cy="939.72" r="6.71"/><g id="Trumpet_Shadow" data-name="Trumpet Shadow" class="cls-44"><path class="cls-45" d="M710.46,976.52c10-.56,15.21-6.2,15.21-6.2,6.84,1.3,22.52-2.52,39.8-1l0,.12s153.28,31.27,167.44,35a21.24,21.24,0,0,1,15.23,11.44c-55.81-11.6-150.1-31.16-167.56-34.49-25.11-4.78-33.6,34.49-7.57,41.69s125.53,29.72,145.4,34.57c25.32,5.56,40.72-13.37,40.7-31.82l24.69,5.11a8.49,8.49,0,1,0,2.29-7.17l-28-5.81c-2.52-9.82-10-18.41-23.27-21.57l-80-19.88,1.68-9a4,4,0,0,0-3.19-4.65l-2-.37a4,4,0,0,0-4.65,3.19L845.13,974l-6.49-1.61,1.71-9.15a4,4,0,0,0-3.19-4.66l-2-.36a4,4,0,0,0-4.66,3.18L828.93,970l-7.27-1.81,1.78-9.48a4,4,0,0,0-3.19-4.65l-2-.37a4,4,0,0,0-4.66,3.19L812,965.8l-42.24-10.5c-20.45-7-32.13-16.48-34.62-26.33s-5-15.48-9.86-17.11C734.27,917.74,732.93,966.8,710.46,976.52Zm60.82,31.53a6.72,6.72,0,1,1,6,7.35A6.72,6.72,0,0,1,771.28,1008.05Zm179.45,16c1.81,13.3-7.42,27.59-33.07,23,0,0-107-23.22-133.7-29.71a10.53,10.53,0,1,0-16.48-9.68c0,.3,0,.59,0,.88-5.41-9.13-.55-22.66,14.09-19.56Z" transform="translate(10.4 9.15)"/><path class="cls-45" d="M719.06,909.26c8,.78,8.14,24,6.35,33.86-1.95,10.66-9.62,34.21-22.86,30.82-7.78-2-7.65-9.86-5.82-28.5S711.06,908.47,719.06,909.26Z" transform="translate(10.4 9.15)"/><path class="cls-46" d="M709.45,928.41c2.29-6.12,16.29-9.2,9.25,18.14S693.91,969.85,709.45,928.41Z" transform="translate(10.4 9.15)"/></g><path id="cello_shadow" data-name="cello shadow" class="cls-47" d="M1110.69,1067.44c-27.38,12.35-44-53.55-16.66-69.58-14.66-17.57,28.54-83.69-50.34-92.58l-3.77-92.93,4.22.12-1.27-13.56H1052a4.68,4.68,0,1,0,0-4.36h-9.56l-.73-7.82h9a4.68,4.68,0,1,0,0-4.36h-9.41l-.3-3.2,3.66-.22c2.67-.33,9.92-23.56-11.8-23.11s-11.31,23.53-11.31,23.53h3.85l-.55,8.9h-7.45a4.68,4.68,0,1,0,0,4.36h7.18l-.5,8.08h-8a4.68,4.68,0,1,0,0,4.36h7.69l-.45,7.33h4.07l-3.56,91.89-2.93,0c-78.05,3-32.32,80.86-53.23,99.81,31.49,17,10.77,75.5-13.21,65.65,29.56,33.86-53.87,146,82.06,142.11S1094.84,1113.62,1110.69,1067.44ZM1082,1097c-6.43,8.31-18.53,13.3-29,9.88a61.82,61.82,0,0,1-13.65-6.43c-.16-.11-.34-.2-.51-.3l-.5,0c-1.2,0-2.4,0-3.6,0-1.82,0-3.63.16-5.43.29-4.19.32-8.36.79-12.55,1.05-9.53.59-19.14-5.67-23.82-13.66-5.2-8.89-4.55-18.92,0-27.85,2.11-4.13,4.44-8.14,6.54-12.28.37-.72.72-1.45,1.07-2.17s.5-1.49.71-2.25a7.6,7.6,0,0,1,.51-1.65c2.85-13.08,12.38-22.38,26.87-23a25.16,25.16,0,0,1,13.9,3.82c.35-.12.69-.25,1.05-.36,14.21-4.6,30,5.37,33.93,19.26,1.44,5.17,2.32,10.43,3.43,15.67.5,2.34,1.19,4.59,1.8,6.89.46.85.9,1.71,1.4,2.54A27.69,27.69,0,0,1,1082,1097Z" transform="translate(10.4 9.15)"/><rect class="cls-48" width="1098" height="278.13"/><text class="cls-49" transform="translate(123.93 286.73)">P<tspan class="cls-50" x="125.84" y="0">r</tspan><tspan class="cls-51" x="218.4" y="0">oms</tspan></text><text class="cls-52" transform="translate(776.05 195.11)">2014</text><text class="cls-53" transform="translate(218.91 730.82)">2</text><text class="cls-53" transform="translate(210.68 1235.69)">5</text><text class="cls-54" transform="translate(58.79 431.38)">Ju<tspan class="cls-55" x="20.2" y="0">l</tspan><tspan class="cls-56" x="25.94" y="0">y</tspan></text><g id="Trumpet_Drawing" data-name="Trumpet Drawing"><path class="cls-57" d="M691.84,982.84c10-.55,15.21-6.2,15.21-6.2,6.83,1.3,22.52-2.52,39.79-1l0,.11s153.27,31.27,167.44,35a21.24,21.24,0,0,1,15.23,11.44c-55.81-11.6-150.11-31.16-167.57-34.48-25.1-4.78-33.59,34.49-7.56,41.68s125.53,29.72,145.39,34.57c25.33,5.56,40.72-13.36,40.71-31.82l24.68,5.11a8.49,8.49,0,1,0,2.29-7.16l-27.95-5.82c-2.53-9.82-10-18.4-23.27-21.56l-80-19.89,1.68-9a4,4,0,0,0-3.19-4.66l-2-.37a4,4,0,0,0-4.66,3.19l-1.57,8.39L820,978.75l1.72-9.14a4,4,0,0,0-3.19-4.66l-2-.37a4,4,0,0,0-4.66,3.19l-1.6,8.57L803,974.53l1.77-9.47a4,4,0,0,0-3.19-4.66l-2-.37a4,4,0,0,0-4.66,3.19l-1.67,8.9-42.23-10.5c-20.46-7-32.13-16.48-34.63-26.33s-5-15.48-9.85-17.1C715.65,924.07,714.31,973.13,691.84,982.84Zm60.82,31.54a6.72,6.72,0,1,1,6,7.34A6.71,6.71,0,0,1,752.66,1014.38Zm179.44,16c1.81,13.31-7.42,27.59-33.07,23,0,0-107-23.22-133.69-29.71a10.53,10.53,0,1,0-16.48-9.67,8.44,8.44,0,0,0,0,.87c-5.42-9.13-.56-22.65,14.09-19.56Z" transform="translate(10.4 9.15)"/><path class="cls-57" d="M700.44,915.58c8,.78,8.14,24,6.34,33.86-1.94,10.66-9.61,34.21-22.85,30.83-7.79-2-7.65-9.87-5.83-28.5S692.44,914.8,700.44,915.58Z" transform="translate(10.4 9.15)"/><path class="cls-58" d="M690.82,934.74c2.3-6.12,16.29-9.21,9.26,18.13S675.28,976.17,690.82,934.74Z" transform="translate(10.4 9.15)"/></g><path id="cello_drawing" data-name="cello drawing" class="cls-59" d="M1123.25,1068.26c-27.38,12.35-44-53.56-16.66-69.58-14.66-17.58,28.54-83.69-50.34-92.58l-3.77-92.93,4.22.11-1.27-13.55h9.15a4.68,4.68,0,1,0,0-4.36H1055l-.73-7.82h9a4.68,4.68,0,1,0,0-4.36h-9.41l-.3-3.2,3.66-.22c2.67-.34,9.92-23.56-11.8-23.11s-11.31,23.53-11.31,23.53H1038l-.55,8.89H1030a4.69,4.69,0,1,0,0,4.36h7.18l-.5,8.08h-8a4.68,4.68,0,1,0,0,4.36h7.69l-.45,7.34H1040l-3.56,91.89-2.93,0c-78.06,3-32.32,80.86-53.23,99.81,31.49,17,10.77,75.49-13.21,65.65,29.56,33.85-53.87,146,82.06,142.11S1107.4,1114.43,1123.25,1068.26Zm-93-28.8c-9.59-1.51-2,24.35-6.33,35.8s-14.28,9.7-15.49,5.78c-2.16-7,6.44-6.65,6.55.28,1.26.16,4.63-19.63,4.86-35.93.17-12,16.55-14.74,16.72-3.72C1036.35,1046.63,1027.1,1045.78,1030.3,1039.46Zm56.32,40.41c-1.09,4-11,6-15.65-5.31s2.15-37.39-7.4-35.6c3.4,6.22-5.83,7.35-6.23,2.4-.17-11,16.29-8.72,16.81,3.21.72,16.29,4.68,36,5.94,35.78C1080,1073.42,1088.57,1072.81,1086.62,1079.87Z" transform="translate(10.4 9.15)"/><circle class="cls-1" cx="643.47" cy="935.52" r="17.29"/><circle class="cls-60" cx="594.84" cy="903" r="9.3"/><circle class="cls-60" cx="526.5" cy="921.01" r="7.94"/><text class="cls-61" transform="translate(324 691.76)">Satu<tspan class="cls-62" x="26.83" y="0">r</tspan><tspan x="33.04" y="0">d</tspan><tspan class="cls-63" x="40.73" y="0">a</tspan><tspan x="47.11" y="0">y 7.30pm – c10.30pm</tspan><tspan class="cls-64"><tspan x="0" y="18.8">Ro</tspan><tspan class="cls-65" x="15.57" y="18.8">y</tspan><tspan class="cls-66" x="22.08" y="18.8">al Albert </tspan><tspan class="cls-67" x="76" y="18.8">H</tspan><tspan class="cls-66" x="86.01" y="18.8">all</tspan></tspan><tspan class="cls-68"><tspan x="2" y="42.8">The appearances of </tspan><tspan class="cls-69" x="79.88" y="42.8">J</tspan><tspan x="82.62" y="42.8">ohn </tspan><tspan class="cls-70" x="100.35" y="42.8">W</tspan><tspan x="108.95" y="42.8">ilson and his o</tspan><tspan class="cls-71" x="165.82" y="42.8">r</tspan><tspan class="cls-72" x="169.38" y="42.8">chestra h</tspan><tspan class="cls-73" x="204.41" y="42.8">a</tspan><tspan class="cls-74" x="208.41" y="42.8">v</tspan><tspan x="212.81" y="42.8">e </tspan><tspan x="2" y="54.8">become </tspan><tspan class="cls-75" x="34.31" y="54.8">one of the annual highlights of the P</tspan><tspan class="cls-76" x="187.39" y="54.8">r</tspan><tspan class="cls-77" x="191.29" y="54.8">oms. </tspan></tspan><tspan class="cls-78"><tspan x="2" y="66.8">F</tspan><tspan class="cls-75" x="7.19" y="66.8">oll</tspan><tspan class="cls-79" x="17.74" y="66.8">o</tspan><tspan class="cls-75" x="22.81" y="66.8">wing the </tspan><tspan class="cls-80" x="62.17" y="66.8">enormous success of the staged per</tspan><tspan class="cls-81" x="198.95" y="66.8">f</tspan><tspan class="cls-80" x="201.75" y="66.8">ormance </tspan></tspan><tspan class="cls-68"><tspan x="2" y="78.8">of </tspan><tspan class="cls-82" x="12.61" y="78.8">M</tspan><tspan x="21.17" y="78.8">y </tspan><tspan class="cls-83" x="28.48" y="78.8">F</tspan><tspan x="33.3" y="78.8">air Lady in 2012, </tspan><tspan class="cls-69" x="104.22" y="78.8">J</tspan><tspan class="cls-72" x="106.96" y="78.8">ohn </tspan><tspan class="cls-70" x="124.69" y="78.8">W</tspan><tspan class="cls-72" x="133.29" y="78.8">ilson </tspan><tspan class="cls-84" x="154.52" y="78.8">r</tspan><tspan class="cls-72" x="158.12" y="78.8">eturns to per</tspan><tspan class="cls-81" x="208.41" y="78.8">f</tspan><tspan x="211.21" y="78.8">orm </tspan><tspan x="2" y="90.8">Cole </tspan><tspan class="cls-85" x="22.67" y="90.8">P</tspan><tspan class="cls-72" x="27.6" y="90.8">orter</tspan><tspan class="cls-86" x="46.79" y="90.8">’</tspan><tspan x="48.57" y="90.8">s </tspan><tspan class="cls-87" x="54.91" y="90.8">T</tspan><tspan x="59.95" y="90.8">o</tspan><tspan class="cls-74" x="64.82" y="90.8">n</tspan><tspan x="69.79" y="90.8">y </tspan><tspan class="cls-88" x="77.1" y="90.8">A</tspan><tspan class="cls-71" x="82.7" y="90.8">w</tspan><tspan class="cls-72" x="89.56" y="90.8">a</tspan><tspan class="cls-71" x="93.67" y="90.8">r</tspan><tspan class="cls-72" x="97.23" y="90.8">d</tspan><tspan class="cls-89" x="102.16" y="90.8">-</tspan><tspan x="105.55" y="90.8">winning musical Kiss </tspan><tspan class="cls-90" x="190.77" y="90.8">M</tspan><tspan x="199.34" y="90.8">e, Kate in </tspan><tspan x="2" y="102.8">its original 1948 arrangements. </tspan><tspan class="cls-91" x="127.13" y="102.8">H</tspan><tspan class="cls-72" x="133.92" y="102.8">e is joined </tspan><tspan class="cls-70" x="176.32" y="102.8">b</tspan><tspan class="cls-72" x="180.99" y="102.8">y a cast of </tspan><tspan x="2" y="114.8">leading singers in this ir</tspan><tspan class="cls-92" x="95.48" y="114.8">r</tspan><tspan x="99.08" y="114.8">e</tspan><tspan class="cls-74" x="103.18" y="114.8">v</tspan><tspan x="107.58" y="114.8">e</tspan><tspan class="cls-84" x="111.68" y="114.8">r</tspan><tspan class="cls-72" x="115.28" y="114.8">ent </tspan><tspan class="cls-84" x="130.24" y="114.8">r</tspan><tspan class="cls-72" x="133.84" y="114.8">e</tspan><tspan class="cls-93" x="137.94" y="114.8">w</tspan><tspan class="cls-72" x="144.74" y="114.8">orking of The </tspan><tspan class="cls-94" x="201.61" y="114.8">T</tspan><tspan class="cls-72" x="206.79" y="114.8">aming </tspan><tspan x="2" y="126.8">of the Sh</tspan><tspan class="cls-84" x="37.15" y="126.8">r</tspan><tspan x="40.76" y="126.8">ew – a </tspan><tspan class="cls-84" x="69.8" y="126.8">p</tspan><tspan class="cls-72" x="74.64" y="126.8">l</tspan><tspan class="cls-73" x="77.03" y="126.8">a</tspan><tspan x="81.04" y="126.8">y within a </tspan><tspan class="cls-92" x="123.1" y="126.8">p</tspan><tspan x="127.94" y="126.8">l</tspan><tspan class="cls-81" x="130.33" y="126.8">a</tspan><tspan class="cls-95" x="134.33" y="126.8">y</tspan><tspan x="138.47" y="126.8">. </tspan></tspan></text><text class="cls-96" transform="translate(320.65 1155.87)">F<tspan class="cls-66" x="7.46" y="0">r</tspan><tspan class="cls-97" x="13.8" y="0">i</tspan><tspan class="cls-66" x="18.27" y="0">d</tspan><tspan class="cls-63" x="25.96" y="0">a</tspan><tspan class="cls-66" x="32.33" y="0">y 6.30pm – c8.35pm</tspan><tspan class="cls-64"><tspan x="0" y="18.8">Ro</tspan><tspan class="cls-65" x="15.57" y="18.8">y</tspan><tspan class="cls-66" x="22.08" y="18.8">al Albert </tspan><tspan class="cls-67" x="76" y="18.8">H</tspan><tspan class="cls-66" x="86.01" y="18.8">all</tspan></tspan><tspan class="cls-68"><tspan x="2" y="42.8">An al</tspan><tspan class="cls-71" x="22.45" y="42.8">l</tspan><tspan class="cls-98" x="24.76" y="42.8">-</tspan><tspan class="cls-99" x="28.24" y="42.8">R</tspan><tspan class="cls-72" x="34.14" y="42.8">ussian p</tspan><tspan class="cls-92" x="65.53" y="42.8">r</tspan><tspan x="69.13" y="42.8">ogramme inspi</tspan><tspan class="cls-84" x="126.91" y="42.8">r</tspan><tspan class="cls-72" x="130.51" y="42.8">ed </tspan><tspan class="cls-70" x="142.37" y="42.8">b</tspan><tspan x="147.04" y="42.8">y dance opens with </tspan><tspan x="2" y="54.8">Rachmanin</tspan><tspan class="cls-73" x="45.49" y="54.8">o</tspan><tspan x="50.26" y="54.8">v</tspan><tspan class="cls-86" x="54.78" y="54.8">’</tspan><tspan x="56.56" y="54.8">s </tspan><tspan class="cls-91" x="62.89" y="54.8">S</tspan><tspan x="67.5" y="54.8">ym</tspan><tspan class="cls-84" x="79.6" y="54.8">p</tspan><tspan class="cls-72" x="84.44" y="54.8">honic Dances – the composer</tspan><tspan class="cls-100" x="199.79" y="54.8">’</tspan><tspan class="cls-72" x="201.58" y="54.8">s blazing </tspan><tspan x="2" y="66.8">‘final spark’ and, </tspan><tspan class="cls-81" x="68.17" y="66.8">f</tspan><tspan x="70.97" y="66.8">or ma</tspan><tspan class="cls-101" x="94.03" y="66.8">n</tspan><tspan class="cls-95" x="99" y="66.8">y</tspan><tspan class="cls-72" x="103.14" y="66.8">, his finest o</tspan><tspan class="cls-71" x="150.07" y="66.8">r</tspan><tspan x="153.63" y="66.8">chestral </tspan><tspan class="cls-93" x="186.11" y="66.8">w</tspan><tspan x="192.92" y="66.8">ork. </tspan><tspan x="2" y="78.8">Embracing jazz, </tspan><tspan class="cls-92" x="66.27" y="78.8">p</tspan><tspan x="71.11" y="78.8">lainchant and the </tspan><tspan class="cls-71" x="140.95" y="78.8">w</tspan><tspan class="cls-72" x="147.81" y="78.8">altz, this me</tspan><tspan class="cls-71" x="194.67" y="78.8">r</tspan><tspan x="198.23" y="78.8">curial piece </tspan><tspan x="2" y="90.8">is a sh</tspan><tspan class="cls-102" x="26.25" y="90.8">o</tspan><tspan class="cls-103" x="31.02" y="90.8">w</tspan><tspan x="37.76" y="90.8">case of dramatic skill. The popular tradition of </tspan><tspan x="2" y="102.8">P</tspan><tspan class="cls-92" x="7.25" y="102.8">r</tspan><tspan x="10.85" y="102.8">omming </tspan><tspan class="cls-69" x="45.87" y="102.8">(</tspan><tspan x="50.14" y="102.8">standing in the A</tspan><tspan class="cls-84" x="116.92" y="102.8">r</tspan><tspan class="cls-72" x="120.52" y="102.8">ena or Gallery a</tspan><tspan class="cls-84" x="182.97" y="102.8">r</tspan><tspan x="186.57" y="102.8">eas of the </tspan><tspan class="cls-81" x="226.53" y="102.8">Ro</tspan><tspan class="cls-104" x="237.15" y="102.8">y</tspan><tspan x="241.55" y="102.8">al </tspan><tspan x="2" y="114.8">Albert </tspan><tspan class="cls-70" x="28.68" y="114.8">H</tspan><tspan class="cls-72" x="35.58" y="114.8">all) is central to the unique and in</tspan><tspan class="cls-73" x="169.01" y="114.8">f</tspan><tspan x="171.81" y="114.8">ormal atmos</tspan><tspan class="cls-92" x="220.3" y="114.8">p</tspan><tspan x="225.14" y="114.8">he</tspan><tspan class="cls-84" x="234.18" y="114.8">r</tspan><tspan x="237.78" y="114.8">e </tspan><tspan x="2" y="126.8">of the </tspan><tspan class="cls-105" x="27.41" y="126.8">B</tspan><tspan class="cls-72" x="33.08" y="126.8">BC P</tspan><tspan class="cls-84" x="53.36" y="126.8">r</tspan><tspan class="cls-72" x="56.96" y="126.8">oms.</tspan></tspan><tspan class="cls-106"><tspan x="2" y="150.8">P</tspan><tspan class="cls-72" x="7.07" y="150.8">art of the P</tspan><tspan class="cls-92" x="51.25" y="150.8">r</tspan><tspan class="cls-80" x="54.85" y="150.8">oms audience has a</tspan><tspan class="cls-107" x="129.82" y="150.8">l</tspan><tspan class="cls-104" x="132.16" y="150.8">w</tspan><tspan class="cls-73" x="139.02" y="150.8">a</tspan><tspan class="cls-107" x="143.02" y="150.8">y</tspan><tspan class="cls-72" x="147.45" y="150.8">s stood in the A</tspan><tspan class="cls-84" x="209.02" y="150.8">r</tspan><tspan class="cls-72" x="212.62" y="150.8">ena, </tspan></tspan><tspan class="cls-68"><tspan x="2" y="162.8">di</tspan><tspan class="cls-84" x="9.47" y="162.8">r</tspan><tspan class="cls-72" x="13.07" y="162.8">ect</tspan><tspan class="cls-108" x="24.13" y="162.8">l</tspan><tspan x="26.47" y="162.8">y in f</tspan><tspan class="cls-92" x="47.15" y="162.8">r</tspan><tspan x="50.75" y="162.8">ont of the o</tspan><tspan class="cls-104" x="96.76" y="162.8">r</tspan><tspan x="100.33" y="162.8">chestra, and ma</tspan><tspan class="cls-101" x="160.96" y="162.8">n</tspan><tspan class="cls-72" x="165.93" y="162.8">y consider this the </tspan><tspan x="2" y="174.8">best position in the hall. </tspan><tspan class="cls-91" x="98.04" y="174.8">H</tspan><tspan class="cls-98" x="104.83" y="174.8">o</tspan><tspan class="cls-93" x="109.61" y="174.8">w</tspan><tspan x="116.41" y="174.8">e</tspan><tspan class="cls-74" x="120.51" y="174.8">v</tspan><tspan x="124.9" y="174.8">e</tspan><tspan class="cls-109" x="129" y="174.8">r</tspan><tspan x="132.53" y="174.8">, </tspan><tspan class="cls-74" x="137.22" y="174.8">y</tspan><tspan x="141.57" y="174.8">ou can also stand high up </tspan><tspan x="2" y="186.8">in the Gallery and just let the sound drift up to </tspan><tspan class="cls-101" x="187.81" y="186.8">y</tspan><tspan class="cls-72" x="192.16" y="186.8">ou.</tspan></tspan></text><text class="cls-61" transform="translate(166.5 923.19)">Satu<tspan class="cls-62" x="26.83" y="0">r</tspan><tspan x="33.04" y="0">d</tspan><tspan class="cls-63" x="40.73" y="0">a</tspan><tspan x="47.11" y="0">y 3.00pm – c10.30pm</tspan><tspan class="cls-110"><tspan x="0" y="18.8">H</tspan><tspan class="cls-111" x="9.9" y="18.8">y</tspan><tspan class="cls-66" x="16.25" y="18.8">de </tspan><tspan class="cls-112" x="33.9" y="18.8">P</tspan><tspan class="cls-66" x="41.35" y="18.8">ark </tspan><tspan class="cls-113" x="64.5" y="18.8">V</tspan><tspan class="cls-66" x="72.32" y="18.8">arious </tspan><tspan class="cls-114" x="111.76" y="18.8">V</tspan><tspan class="cls-66" x="119.72" y="18.8">enues</tspan></tspan><tspan class="cls-115"><tspan x="2" y="42.8">J</tspan><tspan class="cls-72" x="4.74" y="42.8">oin in the Last </tspan><tspan class="cls-102" x="64.13" y="42.8">N</tspan><tspan class="cls-72" x="71.51" y="42.8">ight of the P</tspan><tspan class="cls-92" x="119.87" y="42.8">r</tspan><tspan class="cls-80" x="123.47" y="42.8">oms celebrations in </tspan><tspan class="cls-100" x="201.65" y="42.8">H</tspan><tspan class="cls-82" x="208.48" y="42.8">y</tspan><tspan class="cls-80" x="212.76" y="42.8">de </tspan><tspan class="cls-89" x="224.62" y="42.8">P</tspan><tspan class="cls-72" x="229.69" y="42.8">ark, </tspan></tspan><tspan class="cls-68"><tspan x="2" y="54.8">hosted </tspan><tspan class="cls-70" x="30.11" y="54.8">b</tspan><tspan class="cls-72" x="34.78" y="54.8">y P</tspan><tspan class="cls-92" x="47.35" y="54.8">r</tspan><tspan x="50.95" y="54.8">oms in the </tspan><tspan class="cls-90" x="95.03" y="54.8">P</tspan><tspan x="100.1" y="54.8">ark sta</tspan><tspan class="cls-116" x="126.19" y="54.8">l</tspan><tspan class="cls-71" x="128.53" y="54.8">w</tspan><tspan class="cls-72" x="135.39" y="54.8">art </tspan><tspan class="cls-71" x="148.91" y="54.8">S</tspan><tspan class="cls-72" x="153.63" y="54.8">ir </tspan><tspan class="cls-117" x="162.64" y="54.8">T</tspan><tspan x="167.68" y="54.8">erry </tspan><tspan class="cls-118" x="186.37" y="54.8">W</tspan><tspan class="cls-72" x="194.53" y="54.8">ogan. The </tspan><tspan x="2" y="66.8">open-air concert </tspan><tspan class="cls-73" x="69.18" y="66.8">f</tspan><tspan class="cls-72" x="71.98" y="66.8">eatu</tspan><tspan class="cls-84" x="88.05" y="66.8">r</tspan><tspan class="cls-72" x="91.65" y="66.8">es a host of musical stars, including </tspan><tspan x="2" y="78.8">P</tspan><tspan class="cls-92" x="7.25" y="78.8">r</tspan><tspan x="10.85" y="78.8">oms in the </tspan><tspan class="cls-90" x="54.94" y="78.8">P</tspan><tspan x="60" y="78.8">ark f</tspan><tspan class="cls-73" x="78.45" y="78.8">a</tspan><tspan class="cls-101" x="82.45" y="78.8">v</tspan><tspan class="cls-72" x="86.84" y="78.8">ourites the </tspan><tspan class="cls-108" x="131" y="78.8">B</tspan><tspan x="136.66" y="78.8">BC Concert O</tspan><tspan class="cls-104" x="192.88" y="78.8">r</tspan><tspan x="196.44" y="78.8">chestra under </tspan><tspan x="2" y="90.8">the baton of Richa</tspan><tspan class="cls-104" x="73.6" y="90.8">r</tspan><tspan x="77.16" y="90.8">d Balcombe, and special guests Pumeza </tspan></tspan><tspan class="cls-119"><tspan x="2" y="102.8">M</tspan><tspan class="cls-72" x="10.69" y="102.8">atshikiza, </tspan><tspan x="49.28" y="102.8">R</tspan><tspan class="cls-72" x="55.17" y="102.8">ufus </tspan><tspan class="cls-120" x="74.27" y="102.8">W</tspan><tspan class="cls-80" x="82.33" y="102.8">ai</tspan><tspan class="cls-74" x="88.97" y="102.8">n</tspan><tspan class="cls-80" x="93.94" y="102.8">wright and legendary Earth, </tspan><tspan class="cls-70" x="205.25" y="102.8">W</tspan><tspan class="cls-72" x="213.85" y="102.8">ind &amp; </tspan></tspan><tspan class="cls-121"><tspan x="2" y="114.8">F</tspan><tspan class="cls-72" x="7.08" y="114.8">i</tspan><tspan class="cls-84" x="9.61" y="114.8">r</tspan><tspan class="cls-72" x="13.21" y="114.8">e. P</tspan><tspan class="cls-84" x="27.32" y="114.8">r</tspan><tspan class="cls-72" x="30.92" y="114.8">esenter </tspan><tspan class="cls-117" x="61.22" y="114.8">T</tspan><tspan class="cls-80" x="66.27" y="114.8">o</tspan><tspan class="cls-74" x="71.14" y="114.8">n</tspan><tspan class="cls-80" x="76.11" y="114.8">y </tspan><tspan class="cls-122" x="83.42" y="114.8">B</tspan><tspan class="cls-80" x="89.07" y="114.8">lackburn joins us again to get this </tspan><tspan class="cls-74" x="222.98" y="114.8">y</tspan><tspan class="cls-80" x="227.33" y="114.8">ear</tspan><tspan class="cls-100" x="239.18" y="114.8">’</tspan><tspan class="cls-72" x="240.96" y="114.8">s </tspan></tspan><tspan class="cls-68"><tspan x="2" y="126.8">party under </tspan><tspan class="cls-71" x="50.4" y="126.8">w</tspan><tspan class="cls-81" x="57.26" y="126.8">a</tspan><tspan class="cls-95" x="61.26" y="126.8">y</tspan><tspan x="65.4" y="126.8">, int</tspan><tspan class="cls-84" x="80.66" y="126.8">r</tspan><tspan class="cls-72" x="84.27" y="126.8">oducing a range of artists, including the </tspan></tspan><tspan class="cls-123"><tspan x="2" y="138.8">D</tspan><tspan class="cls-72" x="8.73" y="138.8">hol </tspan><tspan class="cls-124" x="23.76" y="138.8">F</tspan><tspan class="cls-72" x="28.65" y="138.8">oundation and the cast of 20th Century B</tspan><tspan class="cls-81" x="192" y="138.8">o</tspan><tspan class="cls-95" x="196.76" y="138.8">y</tspan><tspan class="cls-72" x="200.9" y="138.8">.</tspan></tspan></text><text class="cls-125" transform="translate(320.65 1128.89)">P<tspan class="cls-126" x="12.78" y="0">r</tspan><tspan x="22.22" y="0">om 64: </tspan><tspan class="cls-127" x="89.86" y="0">S</tspan><tspan x="101.64" y="0">ir </tspan><tspan class="cls-127" x="123.04" y="0">S</tspan><tspan x="134.82" y="0">imon R</tspan><tspan class="cls-128" x="202.78" y="0">a</tspan><tspan x="213.18" y="0">ttle</tspan></text><text class="cls-129" transform="translate(168.36 450.59)"><tspan class="cls-67">S<tspan class="cls-66" x="7.21" y="0">und</tspan><tspan class="cls-63" x="31.21" y="0">a</tspan><tspan class="cls-66" x="37.58" y="0">y 11.00am – c11.50am</tspan></tspan><tspan class="cls-64"><tspan x="0" y="18.8">Ro</tspan><tspan class="cls-65" x="15.57" y="18.8">y</tspan><tspan class="cls-66" x="22.08" y="18.8">al Albert </tspan><tspan class="cls-67" x="76" y="18.8">H</tspan><tspan class="cls-66" x="86.01" y="18.8">all</tspan></tspan><tspan class="cls-130"><tspan x="2" y="42.8">T</tspan><tspan class="cls-75" x="7.47" y="42.8">a</tspan><tspan class="cls-131" x="11.88" y="42.8">k</tspan><tspan class="cls-75" x="16.71" y="42.8">e a journey th</tspan><tspan class="cls-30" x="74.83" y="42.8">r</tspan><tspan class="cls-75" x="78.73" y="42.8">ough London with some of </tspan></tspan><tspan class="cls-132"><tspan class="cls-101" x="2" y="54.8">y</tspan><tspan class="cls-72" x="6.35" y="54.8">our f</tspan><tspan class="cls-81" x="25.53" y="54.8">a</tspan><tspan class="cls-101" x="29.53" y="54.8">v</tspan><tspan class="cls-72" x="33.92" y="54.8">ourite CBeebies characters and ex</tspan><tspan class="cls-92" x="165.38" y="54.8">p</tspan><tspan class="cls-80" x="170.22" y="54.8">lo</tspan><tspan class="cls-84" x="177.48" y="54.8">r</tspan><tspan class="cls-80" x="181.08" y="54.8">e</tspan><tspan x="185.18" y="54.8"> </tspan><tspan class="cls-77" x="188.11" y="54.8">the </tspan><tspan class="cls-75" x="2" y="66.8">sounds of the o</tspan><tspan class="cls-133" x="66.45" y="66.8">r</tspan><tspan class="cls-75" x="70.31" y="66.8">chestra, as </tspan><tspan class="cls-134" x="116.3" y="66.8">w</tspan><tspan class="cls-75" x="123.41" y="66.8">ell as the</tspan><tspan x="160.53" y="66.8" xml:space="preserve"> e</tspan><tspan class="cls-135" x="167.66" y="66.8">v</tspan><tspan x="172.15" y="66.8">er</tspan><tspan class="cls-136" x="180.09" y="66.8">y</tspan><tspan x="184.48" y="66.8">d</tspan><tspan class="cls-137" x="189.51" y="66.8">a</tspan><tspan x="193.61" y="66.8">y </tspan><tspan class="cls-75" x="2" y="78.8">sounds a</tspan><tspan class="cls-76" x="38.17" y="78.8">r</tspan><tspan class="cls-75" x="42.07" y="78.8">ound us. This morning</tspan><tspan class="cls-138" x="137.34" y="78.8">’</tspan><tspan class="cls-75" x="139.42" y="78.8">s ad</tspan><tspan class="cls-139" x="155.99" y="78.8">v</tspan><tspan class="cls-75" x="160.68" y="78.8">entu</tspan><tspan class="cls-76" x="178.95" y="78.8">r</tspan><tspan class="cls-75" x="182.85" y="78.8">e</tspan><tspan x="187.25" y="78.8"> </tspan><tspan x="2" y="90.8">combines li</tspan><tspan class="cls-135" x="47.37" y="90.8">v</tspan><tspan x="51.86" y="90.8">e music f</tspan><tspan class="cls-140" x="88.04" y="90.8">r</tspan><tspan x="91.75" y="90.8">om the </tspan><tspan class="cls-141" x="122.57" y="90.8">B</tspan><tspan x="128.33" y="90.8">BC </tspan><tspan class="cls-75" x="143.66" y="90.8">Philharmonic </tspan><tspan class="cls-75" x="2" y="102.8">and video action on sc</tspan><tspan class="cls-30" x="96.09" y="102.8">r</tspan><tspan class="cls-75" x="99.99" y="102.8">eens </tspan><tspan x="121.12" y="102.8">a</tspan><tspan class="cls-140" x="125.32" y="102.8">r</tspan><tspan x="129.03" y="102.8">ound the hall. The </tspan><tspan x="2" y="114.8">next generation of classical music fans starts he</tspan><tspan class="cls-140" x="190.6" y="114.8">r</tspan><tspan x="194.3" y="114.8">e.</tspan></tspan></text><text class="cls-125" transform="translate(169 420.75)">P<tspan class="cls-126" x="12.78" y="0">r</tspan><tspan x="22.22" y="0">om 13: CBeebies P</tspan><tspan class="cls-142" x="191.74" y="0">r</tspan><tspan x="201.18" y="0">om</tspan></text><path d="M157.1,867.69a2.37,2.37,0,0,0,.82-.13.79.79,0,0,0,.44-.47,2.91,2.91,0,0,0,.16-1.13v-7.67a16.78,16.78,0,0,1,.08-1.79l-1.5,0V855l5.68,0A7.16,7.16,0,0,1,167,856a3.81,3.81,0,0,1,1.53,3.31,4.06,4.06,0,0,1-.64,2.18,4.59,4.59,0,0,1-1.92,1.7,7.25,7.25,0,0,1-3.12.73h-1.44v1.75a14.81,14.81,0,0,1-.08,1.82c.43,0,1-.06,1.7-.06V869H157.1Zm7.59-6a3.38,3.38,0,0,0,.75-2.38c0-2-.89-3-2.68-3a1.48,1.48,0,0,0-1,.29,1.86,1.86,0,0,0-.32,1.29v4.5a6.43,6.43,0,0,0,.9,0A3.09,3.09,0,0,0,164.69,861.71Z" transform="translate(10.4 9.15)"/><path d="M169.7,867.71c.51,0,.83-.14,1-.42a3.23,3.23,0,0,0,.21-1.36v-3.36c0-.6,0-1.16.08-1.69l-1.4,0v-1.51a9.29,9.29,0,0,0,2-.19,2.42,2.42,0,0,0,1-.42h1a6.92,6.92,0,0,1,.06.78c0,.33,0,.64,0,.94h0a3.75,3.75,0,0,1,2.88-1.84,1.84,1.84,0,0,1,1.25.42,1.54,1.54,0,0,1,.49,1.24,1.5,1.5,0,0,1-.34,1,1.18,1.18,0,0,1-1,.44,1.59,1.59,0,0,1-.89-.25,1.16,1.16,0,0,1-.45-.91,1.64,1.64,0,0,0-1.15.66,3.51,3.51,0,0,0-.79,1.28v3.26a15.91,15.91,0,0,1-.08,1.76c.43,0,.86,0,1.3,0V869H169.7Z" transform="translate(10.4 9.15)"/><path d="M181.42,868.71a4.45,4.45,0,0,1-1.82-1.78,5.35,5.35,0,0,1-.66-2.7,6,6,0,0,1,.68-2.88,5.09,5.09,0,0,1,1.83-2,4.84,4.84,0,0,1,2.53-.7,5.35,5.35,0,0,1,2.58.62,4.56,4.56,0,0,1,1.8,1.79,5.46,5.46,0,0,1,.66,2.73,6.29,6.29,0,0,1-.63,2.9,4.55,4.55,0,0,1-1.76,1.92,4.84,4.84,0,0,1-2.59.68A5.39,5.39,0,0,1,181.42,868.71Zm4.2-1.82a6.54,6.54,0,0,0,.44-2.56,8,8,0,0,0-.5-3,1.68,1.68,0,0,0-3.18-.22,6,6,0,0,0-.5,2.56,7.42,7.42,0,0,0,.54,3,1.77,1.77,0,0,0,1.66,1.25A1.56,1.56,0,0,0,185.62,866.89Z" transform="translate(10.4 9.15)"/><path d="M190.46,867.71c.51,0,.83-.14,1-.42a3.23,3.23,0,0,0,.21-1.36v-3.36c0-.6,0-1.16.08-1.69l-1.4,0v-1.51a9.29,9.29,0,0,0,2-.19,2.42,2.42,0,0,0,1-.42h1s0,.36.08,1h0a5.69,5.69,0,0,1,1.4-.81,4.25,4.25,0,0,1,1.52-.31,3.15,3.15,0,0,1,1.51.33,2.44,2.44,0,0,1,1,1,6.19,6.19,0,0,1,1.6-1,4.41,4.41,0,0,1,1.66-.36,3,3,0,0,1,2.47,1,5,5,0,0,1,.81,3.2v2.94a15.91,15.91,0,0,1-.08,1.76c.43,0,.86,0,1.3,0V869H202.6v-1.3a.78.78,0,0,0,.82-.43,3.69,3.69,0,0,0,.18-1.35v-3a3.11,3.11,0,0,0-.42-1.8,1.36,1.36,0,0,0-1.16-.53,2.78,2.78,0,0,0-1.72.66,8.82,8.82,0,0,1,.18,1.9v2.68a15.91,15.91,0,0,1-.08,1.76c.43,0,.86,0,1.3,0V869h-5.16v-1.3q.71,0,.9-.42a3.26,3.26,0,0,0,.2-1.36l0-3.12a3.17,3.17,0,0,0-.36-1.75,1.3,1.3,0,0,0-1.08-.53,2.56,2.56,0,0,0-1.7.74v4.52a15.91,15.91,0,0,1-.08,1.76c.43,0,.83,0,1.2,0V869h-5.14Z" transform="translate(10.4 9.15)"/><path d="M211.78,869.11a3.73,3.73,0,0,1-1.28-.56h0l.06.6H209l-.08-3.44h1.3a2.17,2.17,0,0,0,1,1.55,3.53,3.53,0,0,0,2.13.63,1.7,1.7,0,0,0,1-.26.81.81,0,0,0,.41-.74.77.77,0,0,0-.26-.6,2.28,2.28,0,0,0-.62-.4l-1.44-.58q-1.28-.49-1.92-.81a3.69,3.69,0,0,1-1.15-1,2.49,2.49,0,0,1-.51-1.62,3.19,3.19,0,0,1,.41-1.56,3.22,3.22,0,0,1,1.26-1.19,4.22,4.22,0,0,1,2.09-.48,4.54,4.54,0,0,1,1.26.19,3.33,3.33,0,0,1,1.14.5h0l0-.59h1.52v3.54h-1.3a2.58,2.58,0,0,0-.92-1.64,2.79,2.79,0,0,0-1.82-.6,1.67,1.67,0,0,0-.94.26.92.92,0,0,0-.38.8.91.91,0,0,0,.44.83,6.88,6.88,0,0,0,1.48.61l.52.16a7.89,7.89,0,0,1,2.61,1.4,2.67,2.67,0,0,1,.91,2.1,2.76,2.76,0,0,1-.51,1.69,3.09,3.09,0,0,1-1.34,1,4.43,4.43,0,0,1-1.79.35A6.35,6.35,0,0,1,211.78,869.11Z" transform="translate(10.4 9.15)"/><path d="M223.82,867.71c.51,0,.83-.14,1-.42a3.23,3.23,0,0,0,.21-1.36v-3.32c0-.62,0-1.2.08-1.73l-1.4,0v-1.51a9.29,9.29,0,0,0,2-.19,2.42,2.42,0,0,0,1-.42h1.08v7c0,.64,0,1.23-.08,1.76.43,0,.86,0,1.3,0V869h-5.24Zm1.7-11.15a1.71,1.71,0,0,1,0-2.31,1.45,1.45,0,0,1,1.08-.5,1.41,1.41,0,0,1,1.07.48,1.71,1.71,0,0,1,.43,1.19,1.67,1.67,0,0,1-.41,1.15,1.35,1.35,0,0,1-1.07.46A1.44,1.44,0,0,1,225.52,856.56Z" transform="translate(10.4 9.15)"/><path d="M230.36,867.71c.51,0,.83-.14,1-.42a3.23,3.23,0,0,0,.21-1.36v-3.36c0-.6,0-1.16.08-1.69l-1.4,0v-1.51a9.29,9.29,0,0,0,2-.19,2.42,2.42,0,0,0,1-.42h1s0,.36.08,1h0a6,6,0,0,1,1.43-.79,4.15,4.15,0,0,1,1.45-.33,3.05,3.05,0,0,1,2.6,1,5.73,5.73,0,0,1,.78,3.38v2.68c0,.64,0,1.23-.08,1.76.44,0,.87,0,1.3,0V869h-5.24v-1.3c.51,0,.84-.14,1-.42a3,3,0,0,0,.22-1.36l0-2.84a3.89,3.89,0,0,0-.37-1.94,1.34,1.34,0,0,0-1.25-.62,2.36,2.36,0,0,0-1,.22,2.72,2.72,0,0,0-.84.52v4.52c0,.64,0,1.23-.08,1.76.43,0,.86,0,1.3,0V869h-5.24Z" transform="translate(10.4 9.15)"/><path d="M249.18,865.5l0-4.83h-1.36V859a2,2,0,0,0,1.21-.4,4.17,4.17,0,0,0,1.53-2.1h1.48l0,2.5h2.54v1.54l-2.54.06,0,4.92c0,1.3.4,1.94,1.2,1.94a2.34,2.34,0,0,0,1.82-1.2l1,.9a4.14,4.14,0,0,1-3.72,2.16Q249.18,869.33,249.18,865.5Z" transform="translate(10.4 9.15)"/><path d="M256.28,867.71a1.22,1.22,0,0,0,.79-.21,1,1,0,0,0,.32-.57,5.21,5.21,0,0,0,.07-1v-8.22c0-.64,0-1.21.08-1.74l-1.4.06v-1.52a8.79,8.79,0,0,0,2-.18,2.58,2.58,0,0,0,1-.41h1.08v5.89a6.09,6.09,0,0,1,1.44-.79,4.25,4.25,0,0,1,1.48-.33,3,3,0,0,1,2.58,1,5.79,5.79,0,0,1,.8,3.38v2.68c0,.64,0,1.23-.08,1.76.43,0,.86,0,1.3,0V869h-5.26v-1.3c.51,0,.83-.14,1-.42a3,3,0,0,0,.22-1.36l0-2.84a3.76,3.76,0,0,0-.39-1.94,1.35,1.35,0,0,0-1.23-.62,2.36,2.36,0,0,0-1,.22,2.72,2.72,0,0,0-.84.52v4.52c0,.64,0,1.23-.08,1.76.44,0,.87,0,1.3,0V869h-5.24Z" transform="translate(10.4 9.15)"/><path d="M271.18,868.68a4.38,4.38,0,0,1-1.74-1.85,6.05,6.05,0,0,1-.62-2.8,5.7,5.7,0,0,1,.63-2.63,5.1,5.1,0,0,1,1.77-2,5.05,5.05,0,0,1,5.83.4,4.82,4.82,0,0,1,1.27,3.8l-6.56.12a5,5,0,0,0,.67,2.78,2.38,2.38,0,0,0,2.15,1,3.65,3.65,0,0,0,1.5-.36,3.93,3.93,0,0,0,1.44-1.14l.9.84a5.37,5.37,0,0,1-4.66,2.44A5,5,0,0,1,271.18,868.68Zm4.38-6.33c0-1.5-.59-2.26-1.64-2.26a1.7,1.7,0,0,0-1.37.62,3.29,3.29,0,0,0-.67,1.64Z" transform="translate(10.4 9.15)"/><path d="M285.22,867.69a2.37,2.37,0,0,0,.82-.13.82.82,0,0,0,.44-.47,2.91,2.91,0,0,0,.16-1.13v-7.67a16.78,16.78,0,0,1,.08-1.79l-1.5,0V855l5.68,0a7.16,7.16,0,0,1,4.23,1.07,3.81,3.81,0,0,1,1.53,3.31,4.06,4.06,0,0,1-.64,2.18,4.71,4.71,0,0,1-1.92,1.7A7.25,7.25,0,0,1,291,864h-1.44v1.75a17.14,17.14,0,0,1-.08,1.82c.43,0,1-.06,1.7-.06V869h-5.94Zm7.59-6a3.38,3.38,0,0,0,.75-2.38c0-2-.89-3-2.68-3a1.45,1.45,0,0,0-1,.29,1.86,1.86,0,0,0-.32,1.29v4.5a6.43,6.43,0,0,0,.9,0A3.09,3.09,0,0,0,292.81,861.71Z" transform="translate(10.4 9.15)"/><path d="M298.13,868.58a2.6,2.6,0,0,1-.73-1.91A2.91,2.91,0,0,1,299,864a8.81,8.81,0,0,1,3.94-1v-1c0-1.22-.45-1.83-1.36-1.83a2,2,0,0,0-1.44.56,1.15,1.15,0,0,1,.24.77,1.26,1.26,0,0,1-.33.85,1.38,1.38,0,0,1-1.91,0,1.4,1.4,0,0,1-.34-1,1.94,1.94,0,0,1,.56-1.37,3.63,3.63,0,0,1,1.53-.94,6.61,6.61,0,0,1,2.13-.33c2.47,0,3.7,1.28,3.7,3.82l0,3.28c0,.64,0,1.23-.08,1.76.44,0,.87,0,1.3,0V869h-3.78c0-.17-.05-.48-.08-.92h0a4,4,0,0,1-3,1.24A2.65,2.65,0,0,1,298.13,868.58Zm4.83-1.93v-2.23A4.49,4.49,0,0,0,301,865a1.48,1.48,0,0,0-.77,1.3,1,1,0,0,0,.33.8,1.24,1.24,0,0,0,.81.27A2.12,2.12,0,0,0,303,866.65Z" transform="translate(10.4 9.15)"/><path d="M308.1,867.71c.51,0,.83-.14,1-.42a3.23,3.23,0,0,0,.21-1.36v-3.36c0-.6,0-1.16.08-1.69l-1.4,0v-1.51a9.29,9.29,0,0,0,2-.19,2.42,2.42,0,0,0,1-.42h1a6.92,6.92,0,0,1,.06.78c0,.33,0,.64,0,.94h0a3.75,3.75,0,0,1,2.88-1.84,1.85,1.85,0,0,1,1.25.42,1.54,1.54,0,0,1,.49,1.24,1.5,1.5,0,0,1-.34,1,1.2,1.2,0,0,1-1,.44,1.59,1.59,0,0,1-.89-.25,1.16,1.16,0,0,1-.45-.91,1.62,1.62,0,0,0-1.15.66,3.51,3.51,0,0,0-.79,1.28v3.26c0,.64,0,1.23-.08,1.76.43,0,.86,0,1.3,0V869H308.1Z" transform="translate(10.4 9.15)"/><path d="M317.2,867.71c.51,0,.83-.14,1-.42a3,3,0,0,0,.22-1.36v-8.22c0-.64,0-1.21.08-1.74l-1.4.06v-1.52a8.79,8.79,0,0,0,2-.18,2.4,2.4,0,0,0,1-.41h1.1V863h1l1.44-1.65c.41-.47.67-.75.78-.85v0l-1.06,0V859h4.5v1.28a3.83,3.83,0,0,0-1.63.53,5.52,5.52,0,0,0-1.21,1.06l-1.28,1.41v0a2.47,2.47,0,0,1,.61.44,5.76,5.76,0,0,1,.69.8l1.34,1.76a10.19,10.19,0,0,0,.92,1,1.27,1.27,0,0,0,.92.38V869h-2.3a1.56,1.56,0,0,1-1.06-.4,8.43,8.43,0,0,1-1.16-1.34c-.51-.68-1-1.37-1.46-2.08l-.54-.76-.46,0v1.33c0,.64,0,1.23-.08,1.76.43,0,.86,0,1.3,0V869H317.2Z" transform="translate(10.4 9.15)"/><path d="M157.14,885.08H172v2.1l-14.82.06Z" transform="translate(10.4 9.15)"/><path d="M179.26,891.12a2.64,2.64,0,0,0,.82-.13.82.82,0,0,0,.44-.47,2.93,2.93,0,0,0,.16-1.14v-7.66a16.85,16.85,0,0,1,.08-1.8l-1.5.06v-1.54H185v1.32a2.64,2.64,0,0,0-.82.13.82.82,0,0,0-.44.47,2.93,2.93,0,0,0-.16,1.14v3.12h5.5v-2.9a13.49,13.49,0,0,1,.08-1.8l-1.5.06v-1.54h5.74v1.32a2.64,2.64,0,0,0-.82.13.82.82,0,0,0-.44.47,2.93,2.93,0,0,0-.16,1.14v7.66a16.85,16.85,0,0,1-.08,1.8q.65-.06,1.5-.06v1.54h-5.74v-1.32a2.64,2.64,0,0,0,.82-.13.82.82,0,0,0,.44-.47,2.93,2.93,0,0,0,.16-1.14v-3.24l-5.5.06v3a16.85,16.85,0,0,1-.08,1.8q.65-.06,1.5-.06v1.54h-5.74Z" transform="translate(10.4 9.15)"/><path d="M195.42,897.4a1.5,1.5,0,0,1-.52-1.18,1.38,1.38,0,0,1,.37-1,1.22,1.22,0,0,1,.93-.41,1,1,0,0,1,.73.31,1.16,1.16,0,0,1,.29.81,1.72,1.72,0,0,1,0,.26v0c.25,0,.54-.32.85-1a13.6,13.6,0,0,0,.85-2.32l-3.16-6.34a10.47,10.47,0,0,1-.7-1.57,6.8,6.8,0,0,1-.26-1.13l-.92,0v-1.52h5v1.28q-.84.1-.84.78a2,2,0,0,0,.2.78l2,4.48h0l.42-1.34q.22-.76.84-2.64a5.92,5.92,0,0,1,.84-1.88v0l-1.14.08v-1.52h3.56v1.28a1.7,1.7,0,0,0-1,.72,6.3,6.3,0,0,0-.76,1.56l-2.5,7.14a21.45,21.45,0,0,1-1.1,2.76,4.42,4.42,0,0,1-1.11,1.47,2.32,2.32,0,0,1-1.51.49A1.88,1.88,0,0,1,195.42,897.4Z" transform="translate(10.4 9.15)"/><path d="M207.17,892.14a4,4,0,0,1-1.42-1.77,7.09,7.09,0,0,1,.11-5.54,4.78,4.78,0,0,1,1.75-2,4.72,4.72,0,0,1,2.59-.72,5.35,5.35,0,0,1,1.78.36v-1.32c0-.64,0-1.23.08-1.76-.44,0-.91.06-1.42.06v-1.52a9.38,9.38,0,0,0,2-.18,2.42,2.42,0,0,0,1-.42h1.08v11.88c0,.64,0,1.23-.08,1.76.44,0,.87-.06,1.3-.06v1.52h-3.8l-.1-.92h0a3.76,3.76,0,0,1-2.82,1.24A3.69,3.69,0,0,1,207.17,892.14Zm4.09-1.46a2.19,2.19,0,0,0,.72-.7v-6a1.8,1.8,0,0,0-.62-.27,3.15,3.15,0,0,0-.8-.11,1.94,1.94,0,0,0-1.83,1.1,5.87,5.87,0,0,0-.55,2.7,5.51,5.51,0,0,0,.53,2.49,1.71,1.71,0,0,0,1.61,1.05A1.85,1.85,0,0,0,211.26,890.68Z" transform="translate(10.4 9.15)"/><path d="M219.5,892.11a4.38,4.38,0,0,1-1.74-1.85,6.05,6.05,0,0,1-.62-2.8,5.7,5.7,0,0,1,.63-2.63,5,5,0,0,1,1.77-2,5.05,5.05,0,0,1,5.83.4,4.82,4.82,0,0,1,1.27,3.8l-6.56.12a5,5,0,0,0,.67,2.78,2.38,2.38,0,0,0,2.15,1,3.65,3.65,0,0,0,1.5-.36,4,4,0,0,0,1.44-1.14l.9.84a5.37,5.37,0,0,1-4.66,2.44A5.1,5.1,0,0,1,219.5,892.11Zm4.38-6.33c0-1.51-.59-2.26-1.64-2.26a1.69,1.69,0,0,0-1.37.61,3.36,3.36,0,0,0-.67,1.65Z" transform="translate(10.4 9.15)"/><path d="M233.54,891.12a2.64,2.64,0,0,0,.82-.13.82.82,0,0,0,.44-.47,2.93,2.93,0,0,0,.16-1.14v-7.66a16.85,16.85,0,0,1,.08-1.8l-1.5.06v-1.54l5.68,0a7.09,7.09,0,0,1,4.23,1.07,3.8,3.8,0,0,1,1.53,3.31,4.06,4.06,0,0,1-.64,2.18,4.79,4.79,0,0,1-1.92,1.7,7.25,7.25,0,0,1-3.12.72l-.78,0-.66,0v1.76a17.14,17.14,0,0,1-.08,1.82c.43,0,1-.06,1.7-.06v1.54h-5.94Zm7.59-6a3.37,3.37,0,0,0,.75-2.37c0-2-.89-3-2.68-3a1.45,1.45,0,0,0-1,.3,1.83,1.83,0,0,0-.32,1.28v4.5a6.37,6.37,0,0,0,.9.06A3.09,3.09,0,0,0,241.13,885.13Z" transform="translate(10.4 9.15)"/><path d="M246.45,892a2.62,2.62,0,0,1-.73-1.91,2.91,2.91,0,0,1,1.64-2.67,8.81,8.81,0,0,1,3.94-1v-1c0-1.21-.45-1.82-1.36-1.82a2,2,0,0,0-1.44.56,1.14,1.14,0,0,1,.24.76,1.27,1.27,0,0,1-.33.86,1.22,1.22,0,0,1-1,.38,1.19,1.19,0,0,1-.94-.39,1.4,1.4,0,0,1-.34-1,2,2,0,0,1,.56-1.38,3.61,3.61,0,0,1,1.53-.93,6.61,6.61,0,0,1,2.13-.33q3.7,0,3.7,3.82l0,3.28c0,.64,0,1.23-.08,1.76.44,0,.87-.06,1.3-.06v1.52H251.5c0-.17-.05-.48-.08-.92h0a4,4,0,0,1-3,1.24A2.65,2.65,0,0,1,246.45,892Zm4.83-1.93v-2.24a4.49,4.49,0,0,0-1.95.6,1.47,1.47,0,0,0-.77,1.3,1,1,0,0,0,.33.8,1.29,1.29,0,0,0,.81.26A2.11,2.11,0,0,0,251.28,890.08Z" transform="translate(10.4 9.15)"/><path d="M256.42,891.14c.51,0,.83-.14,1-.42a3.23,3.23,0,0,0,.21-1.36V886c0-.6,0-1.17.08-1.7l-1.4.06v-1.52a9.38,9.38,0,0,0,2-.18,2.42,2.42,0,0,0,1-.42h1a6.92,6.92,0,0,1,.06.78c0,.32,0,.63,0,.94h0a3.72,3.72,0,0,1,2.88-1.84,1.85,1.85,0,0,1,1.25.42,1.53,1.53,0,0,1,.49,1.24,1.5,1.5,0,0,1-.34,1,1.23,1.23,0,0,1-1,.44,1.6,1.6,0,0,1-.89-.26,1.13,1.13,0,0,1-.45-.9,1.64,1.64,0,0,0-1.15.65,3.47,3.47,0,0,0-.79,1.29v3.26c0,.64,0,1.23-.08,1.76.43,0,.86-.06,1.3-.06v1.52h-5.24Z" transform="translate(10.4 9.15)"/><path d="M265.52,891.14c.51,0,.83-.14,1-.42a3,3,0,0,0,.22-1.36v-8.22c0-.64,0-1.22.08-1.74l-1.4.06v-1.52a9.38,9.38,0,0,0,2-.18,2.26,2.26,0,0,0,1-.42h1.1v9.12h1L272,884.8a10.19,10.19,0,0,1,.78-.84v0l-1.06,0v-1.52h4.5v1.28a3.7,3.7,0,0,0-1.63.53,5.75,5.75,0,0,0-1.21,1l-1.28,1.42v0a2.71,2.71,0,0,1,.61.43,6.65,6.65,0,0,1,.69.81l1.34,1.76a10.19,10.19,0,0,0,.92,1,1.31,1.31,0,0,0,.92.38v1.3h-2.3a1.56,1.56,0,0,1-1.06-.4A8.92,8.92,0,0,1,272,890.7c-.51-.68-1-1.37-1.46-2.08l-.54-.76-.46,0v1.34c0,.64,0,1.23-.08,1.76.43,0,.86-.06,1.3-.06v1.52h-5.26Z" transform="translate(10.4 9.15)"/><text class="cls-125" transform="translate(324 644.05)">P<tspan class="cls-126" x="12.78" y="0">r</tspan><tspan x="22.22" y="0">om 21: The </tspan><tspan class="cls-143" x="127.64" y="0">J</tspan><tspan class="cls-128" x="136.1" y="0">o</tspan><tspan x="147.34" y="0">hn </tspan><tspan class="cls-144" x="177.74" y="0">W</tspan><tspan x="197.56" y="0">ilson </tspan><tspan x="0" y="23.43">O</tspan><tspan class="cls-126" x="15.38" y="23.43">r</tspan><tspan x="24.82" y="23.43">chest</tspan><tspan class="cls-145" x="76.32" y="23.43">r</tspan><tspan x="85.82" y="23.43">a — Kiss </tspan><tspan class="cls-146" x="169.16" y="23.43">M</tspan><tspan x="188.13" y="23.43">e, </tspan><tspan class="cls-145" x="209.15" y="23.43">K</tspan><tspan class="cls-128" x="223.29" y="23.43">a</tspan><tspan x="233.69" y="23.43">te</tspan></text><text class="cls-54" transform="translate(203.01 668.47)">August</text><text class="cls-54" transform="translate(29.5 901.46)">September</text><text class="cls-54" transform="translate(174.69 1167.53)">September</text><text class="cls-147" transform="translate(43.59 970.05)">13</text><text class="cls-147" transform="translate(35.81 493.65)">27</text><polygon id="_4._Line_decoration" data-name="4. Line decoration" class="cls-148" points="436.55 1088.93 436.55 1085.35 303.83 1085.35 303.83 1200.13 303.83 1210.86 303.83 1214.44 303.83 1215.31 273.34 1215.31 273.34 1218.22 303.83 1218.22 303.83 1228.45 303.83 1376.09 436.55 1376.09 436.55 1372.51 306.78 1372.51 306.78 1088.93 436.55 1088.93"/><polygon id="_3._Line_decoration" data-name="3. Line decoration" class="cls-148" points="259.6 843.5 259.6 840.44 141.87 840.44 141.87 938.41 141.87 945.5 122.18 945.5 122.18 948.53 141.87 948.53 141.87 950.63 141.87 962.59 141.87 1088.6 259.6 1088.6 259.6 1085.54 144.82 1085.54 144.82 843.5 259.6 843.5"/><polygon id="_2._Line_decoration" data-name="2. Line decoration" class="cls-148" points="437.9 600.75 437.9 597.73 305.18 597.73 305.18 703.5 274.74 703.5 274.74 706.52 305.18 706.52 305.18 842.74 437.9 842.74 437.9 839.72 308.13 839.72 308.13 600.75 437.9 600.75"/><polygon id="_1._Line_decoration" data-name="1. Line decoration" class="cls-148" points="274.74 365.68 274.74 362.74 142.02 362.74 142.02 465.74 111.58 465.74 111.58 468.67 142.02 468.67 142.02 601.32 274.74 601.32 274.74 598.38 144.97 598.38 144.97 365.68 274.74 365.68"/><text class="cls-149" transform="translate(54.51 100.27)">T<tspan class="cls-150" x="22.05" y="0">he </tspan><tspan class="cls-151" x="70.63" y="0">B</tspan><tspan class="cls-152" x="92.71" y="0">BC p</tspan><tspan class="cls-153" x="169.75" y="0">r</tspan><tspan class="cls-152" x="185.15" y="0">esents</tspan></text><g id="Saxophone_drawing" data-name="Saxophone drawing"><path class="cls-154" d="M834.81,1124.61c-25.7-17.41-38.5-9.38-28.72,3.53a.7.7,0,0,1,.2.19c7.24,9.1,22.21,18.74,33.54,19.33a.39.39,0,0,1,.25.09C846.75,1149.89,861.25,1142.53,834.81,1124.61Zm8,16.2c-2,3.08-11.06.78-20.31-5.13s-15.16-13.21-13.19-16.29,11.07-.78,20.32,5.13S844.74,1137.72,842.77,1140.81Z" transform="translate(10.4 9.15)"/><path class="cls-154" d="M807,1132.42c-5.68,36.55,25.81,70.34,8.69,76.64-4.15,1.85-15.89-43-29.46-83.21l1.11-.39a2.46,2.46,0,1,0-1.62-4.64l-1.07.37-1.22-3.51,1.06-.37a2.46,2.46,0,1,0-1.62-4.64l-1.08.38-1.27-3.5,1.13-.39a2.47,2.47,0,0,0,1.51-3.13h0a2.46,2.46,0,0,0-3.13-1.52l-1.24.43c-7-18.47-14.23-33.49-20.92-38.64-11.12-10-23.48,10.07-34.39,18.13a15.73,15.73,0,0,1-5.9,3c-12.17,2.57-9.31,6.94-9.31,6.94a31.25,31.25,0,0,0,17.74-3.88c10-5.43,16.31-14.71,22.31-16.81,9-3.12,16.94,51.42,26.81,91.23s14.88,76.27,51.26,65.25c38.18-11.83,6.81-68.92,10.54-80.44C827,1147.77,814.51,1140.52,807,1132.42Z" transform="translate(10.4 9.15)"/></g><g id="Piano"><rect class="cls-154" x="762.41" y="1395.08" width="10.31" height="56.16" transform="translate(14.17 7.12) rotate(0.15)"/><rect class="cls-154" x="746.43" y="1395.46" width="10.31" height="56.16" transform="translate(14.17 7.16) rotate(0.15)"/><rect class="cls-154" x="730.44" y="1395.84" width="10.31" height="56.16" transform="translate(14.17 7.21) rotate(0.15)"/><rect class="cls-154" x="714.46" y="1396.23" width="10.31" height="56.16" transform="translate(14.17 7.25) rotate(0.15)"/><rect class="cls-59" x="755.37" y="1412.01" width="7.02" height="39.21" transform="translate(14.19 7.14) rotate(0.15)"/><rect class="cls-154" x="776.87" y="1395.12" width="10.31" height="56.16" transform="translate(14.17 7.08) rotate(0.15)"/><rect class="cls-154" x="791.34" y="1395.16" width="10.31" height="56.16" transform="matrix(1, 0, 0, 1, 14.17, 7.05)"/><rect class="cls-154" x="805.8" y="1395.19" width="10.31" height="56.16" transform="translate(14.17 7.01) rotate(0.15)"/><rect class="cls-154" x="820.26" y="1395.23" width="10.31" height="56.16" transform="matrix(1, 0, 0, 1, 14.17, 6.97)"/><rect class="cls-154" x="834.72" y="1395.27" width="10.31" height="56.16" transform="matrix(1, 0, 0, 1, 14.17, 6.93)"/><rect class="cls-154" x="849.19" y="1395.31" width="10.31" height="56.16" transform="matrix(1, 0, 0, 1, 14.17, 6.89)"/><rect class="cls-154" x="863.65" y="1395.35" width="10.31" height="56.16" transform="translate(14.17 6.85) rotate(0.15)"/><rect class="cls-154" x="877.82" y="1395.39" width="10.31" height="56.16" transform="translate(14.17 6.82) rotate(0.15)"/><rect class="cls-154" x="892.57" y="1395.42" width="10.31" height="56.16" transform="matrix(1, 0, 0, 1, 14.17, 6.78)"/><rect class="cls-154" x="907.04" y="1395.46" width="10.31" height="56.16" transform="matrix(1, 0, 0, 1, 14.17, 6.74)"/><rect class="cls-154" x="921.5" y="1395.5" width="10.31" height="56.16" transform="matrix(1, 0, 0, 1, 14.17, 6.7)"/><rect class="cls-154" x="935.96" y="1395.54" width="10.31" height="56.16" transform="translate(14.17 6.66) rotate(0.15)"/><rect class="cls-154" x="950.42" y="1395.58" width="10.31" height="56.16" transform="matrix(1, 0, 0, 1, 14.17, 6.62)"/><rect class="cls-154" x="964.89" y="1395.62" width="10.31" height="56.16" transform="translate(14.17 6.59) rotate(0.15)"/><rect class="cls-154" x="979.35" y="1395.65" width="10.31" height="56.16" transform="translate(14.17 6.55) rotate(0.15)"/><rect class="cls-154" x="993.81" y="1395.69" width="10.31" height="56.16" transform="matrix(1, 0, 0, 1, 14.17, 6.51)"/><rect class="cls-154" x="1008.27" y="1395.73" width="10.31" height="56.16" transform="translate(14.17 6.47) rotate(0.15)"/><rect class="cls-154" x="1022.74" y="1395.77" width="10.31" height="56.16" transform="translate(14.17 6.43) rotate(0.15)"/><rect class="cls-154" x="1037.2" y="1395.81" width="10.31" height="56.16" transform="translate(14.17 6.39) rotate(0.15)"/><rect class="cls-154" x="1051.66" y="1395.84" width="10.31" height="56.16" transform="translate(14.17 6.36) rotate(0.15)"/><rect class="cls-154" x="1066.13" y="1395.88" width="10.31" height="56.16" transform="matrix(1, 0, 0, 1, 14.17, 6.32)"/><rect class="cls-59" x="771.27" y="1412.05" width="7.02" height="39.21" transform="translate(14.19 7.1) rotate(0.15)"/><rect class="cls-59" x="814.65" y="1413.73" width="7.02" height="39.21" transform="matrix(1, 0, 0, 1, 14.19, 6.99)"/><rect class="cls-59" x="829.11" y="1413.77" width="7.02" height="39.21" transform="matrix(1, 0, 0, 1, 14.19, 6.95)"/><rect class="cls-59" x="843.58" y="1413.81" width="7.02" height="39.21" transform="translate(14.19 6.91) rotate(0.15)"/><rect class="cls-59" x="901.43" y="1412.4" width="7.02" height="39.21" transform="matrix(1, 0, 0, 1, 14.19, 6.76)"/><rect class="cls-59" x="887.96" y="1412.36" width="7.02" height="39.21" transform="translate(14.19 6.79) rotate(0.15)"/><rect class="cls-59" x="944.97" y="1412.51" width="7.02" height="39.21" transform="translate(14.19 6.64) rotate(0.15)"/><rect class="cls-59" x="959.28" y="1412.55" width="7.02" height="39.21" transform="matrix(1, 0, 0, 1, 14.19, 6.61)"/><rect class="cls-59" x="973.74" y="1412.59" width="7.02" height="39.21" transform="translate(14.19 6.57) rotate(0.15)"/><rect class="cls-59" x="1017.13" y="1412.7" width="7.02" height="39.21" transform="matrix(1, 0, 0, 1, 14.19, 6.45)"/><rect class="cls-59" x="1031.59" y="1412.74" width="7.02" height="39.21" transform="translate(14.19 6.41) rotate(0.15)"/></g><g id="Blue_line" data-name="Blue line"><polygon class="cls-155" points="748.28 345.97 728.93 345.97 728.93 278.13 731.34 278.13 731.34 342.58 748.28 342.58 748.28 345.97"/></g><text class="cls-156" transform="translate(744.05 1364.31)">Tic<tspan class="cls-157" x="26.15" y="0">ke</tspan><tspan x="45.32" y="0">ts </tspan><tspan class="cls-158" x="65.36" y="0">a</tspan><tspan class="cls-159" x="74.43" y="0">v</tspan><tspan x="83.34" y="0">ailable online th</tspan><tspan class="cls-157" x="216.3" y="0">r</tspan><tspan x="223.97" y="0">ou</tspan><tspan class="cls-160" x="245.25" y="0">g</tspan><tspan x="255.63" y="0">h </tspan><tspan class="cls-161"><tspan class="cls-21" x="0" y="21.6">ww</tspan><tspan class="cls-162" x="29.81" y="21.6">w</tspan><tspan x="43.34" y="21.6">.bbc.</tspan><tspan class="cls-163" x="82.73" y="21.6">c</tspan><tspan x="92.21" y="21.6">o</tspan><tspan class="cls-164" x="102.74" y="21.6">.</tspan><tspan x="106.97" y="21.6">uk</tspan><tspan class="cls-165" x="127.39" y="21.6">/</tspan><tspan x="139.32" y="21.6">p</tspan><tspan class="cls-157" x="150.07" y="21.6">r</tspan><tspan x="157.73" y="21.6">oms</tspan></tspan></text><text class="cls-166" transform="translate(26.47 186.84)">The</text></svg>