<svg xmlns="http://www.w3.org/2000/svg" viewBox="0 0 171.01 123.24"><defs><style>.cls-1,.cls-3{fill:#a4d5e0;}.cls-2,.cls-4,.cls-6,.cls-7{fill:none;}.cls-2,.cls-3,.cls-4{stroke:#000;}.cls-2,.cls-3,.cls-4,.cls-6,.cls-7{stroke-miterlimit:10;}.cls-2{stroke-width:2.48px;}.cls-3{stroke-width:0.5px;}.cls-5{fill:#fff;}.cls-6,.cls-7{stroke:#fff;}.cls-6{stroke-width:3px;}.cls-7{stroke-width:0.7px;}</style></defs><title>graphicdesign</title><g id="Layer_2" data-name="Layer 2"><g id="Layer_1-2" data-name="Layer 1"><polygon class="cls-1" points="149.25 120.31 31.64 120.31 31.64 8.63 171.01 8.63 171.01 97.44 149.25 120.31"/><polyline class="cls-2" points="137.91 112.93 138.95 86.93 159.67 90.06"/><g id="_6T15FY.tif" data-name="6T15FY.tif"><path class="cls-1" d="M15.7,43.5c.12.16.34.33.2.55s-.35.1-.54.1l-12,0c-.18,0-.42.07-.53-.1s.07-.4.19-.55c-.19.55,5.67-13.95,5.82-14.1C9.06,29.68,15.9,44.05,15.7,43.5Z"/><path class="cls-3" d="M11.62,122.34a6.8,6.8,0,0,1-3.3.61,31.64,31.64,0,0,0-3.23,0,4.86,4.86,0,0,1-4.83-4.8c0-1.35,0-2.7,0-4,0-.49.11-.72.67-.72,5.45,0,6.91,0,12.36,0,.51,0,.66.19.65.67,0,1.42,0,2.84,0,4.25a6.22,6.22,0,0,1-.6,2.32Z"/><path class="cls-4" d="M13.6,43.5c.12.16.34.33.2.55s-.35.1-.54.1l-12,0c-.18,0-.42.07-.53-.1s.07-.4.19-.55c-.19.55,5.67-13.95,5.82-14.1C7,29.68,13.8,44.05,13.6,43.5Z"/><path class="cls-3" d="M.54,110.21a2.79,2.79,0,0,1-.06-.33c0-.19,0-.38,0-.56,0-15.63,0-46.52,0-62.15,0-1,0-1,1-1,5.27,0,6.55,0,11.82,0,.68,0,.87.18.87.87,0,15.72,0,46.61.05,62.34,0,.74-.22.9-.92.89-1.79,0-1.79,0-1.79-1.8,0-14.44,0-44.06,0-58.5,0-1.06,0-1.06-1-1.06-1.4,0-1.26-.13-1.26,1.26,0,14.63,0,44.53.05,59.16,0,1,0,1-1,1-3.64,0-3.28,0-6.92,0A1.2,1.2,0,0,1,.54,110.21Z"/></g><polygon class="cls-2" points="137.91 112.93 20.3 112.93 20.3 1.24 159.67 1.24 159.67 90.06 137.91 112.93"/><rect class="cls-5" x="108.2" y="24.15" width="29.71" height="32.93"/><rect class="cls-6" x="98.36" y="40.62" width="29.71" height="32.93"/><rect class="cls-5" x="39.39" y="27" width="33.18" height="4.88" rx="2.44"/><rect class="cls-5" x="39.39" y="36.82" width="27.91" height="4.88" rx="2.44"/><rect class="cls-5" x="39.39" y="46.64" width="20.45" height="4.88" rx="2.44"/><rect class="cls-5" x="39.39" y="56.46" width="8.58" height="4.88" rx="2.44"/><rect class="cls-5" x="96.03" y="78.79" width="8.58" height="8.58" rx="2.44"/><rect class="cls-5" x="108.92" y="78.79" width="8.58" height="8.58" rx="2.44"/><rect class="cls-5" x="121.92" y="78.79" width="8.58" height="8.58" rx="2.44"/><rect class="cls-5" x="39.41" y="83.07" width="2.68" height="2.68" transform="translate(-13.66 8.09) rotate(-9.72)"/><line class="cls-7" x1="45.19" y1="77.36" x2="36.29" y2="91.28"/><circle class="cls-5" cx="45.19" cy="77.36" r="0.74"/><circle class="cls-5" cx="36.29" cy="91.28" r="0.74"/><rect class="cls-5" x="79.1" y="96.04" width="2.68" height="2.68" transform="translate(-8.12 7.32) rotate(-4.96)"/><line class="cls-7" x1="85.44" y1="90.71" x2="75.42" y2="103.85"/><circle class="cls-5" cx="85.44" cy="90.71" r="0.74"/><circle class="cls-5" cx="75.42" cy="103.85" r="0.74"/><path class="cls-7" d="M40.74,84.32c23.81-15.53,17.15,27.21,39.69,13"/></g></g></svg>