<svg xmlns="http://www.w3.org/2000/svg" viewBox="0 0 77.17 44.62"><defs><style>.cls-1{fill:#020202;}</style></defs><title>Logo</title><g id="Layer_2" data-name="Layer 2"><g id="Layer_1-2" data-name="Layer 1"><path class="cls-1" d="M71.63,8.64C63.45-.45,50.1-.91,40.5,8.17c-3.26,3.09-4.45,2.6-6.87-.6C29.2,1.7,23.14-1.21,15.68.47,8,2.19,3.4,7.3,1.05,14.67-.46,19.4.17,24.24,0,28.61c0,3.27,0,6.1,0,8.94,0,2.09-.48,4.78,2.87,4.65,3.1-.13,2.9-2.75,2.93-4.86.08-5.31-.12-10.64.06-16C6.17,13.1,11.37,6.88,18.26,6.28c6.39-.56,11.38,3.85,13.61,12.1,1,3.85,1.72,7.81,3,11.57,5,14.66,23.79,19.49,35.14,9.16A21.58,21.58,0,0,0,71.63,8.64ZM55.77,38.75A15.45,15.45,0,0,1,39.85,23.12,15.67,15.67,0,1,1,55.77,38.75Z"/></g></g></svg>