<svg xmlns="http://www.w3.org/2000/svg" viewBox="0 0 147 96.61"><defs><style>.cls-1{fill:#a4d5e0;}.cls-2{fill:#fff;}.cls-3{fill:none;stroke:#000;stroke-miterlimit:10;stroke-width:3.29px;}</style></defs><title>motiongraphics</title><g id="Layer_2" data-name="Layer 2"><g id="Layer_1-2" data-name="Layer 1"><rect class="cls-1" x="13.54" y="9.9" width="133.46" height="86.71" rx="16.78"/><path class="cls-2" d="M77.6,35.35l18,10.78a3.1,3.1,0,0,1,0,5.29l-18,11.23A3.11,3.11,0,0,1,72.9,60V38A3.11,3.11,0,0,1,77.6,35.35Z"/><rect class="cls-3" x="1.65" y="1.65" width="133.46" height="86.71" rx="16.78"/><rect class="cls-2" x="31.53" y="36.93" width="33.18" height="4.88" rx="2.44"/><rect class="cls-2" x="23.27" y="45" width="41.44" height="4.88" rx="2.44"/><rect class="cls-2" x="31.53" y="53.07" width="33.18" height="4.88" rx="2.44"/><rect class="cls-2" x="16.72" y="36.93" width="8.77" height="4.88" rx="2.44"/><rect class="cls-2" x="13.97" y="45" width="4.88" height="4.88" rx="2.44"/><rect class="cls-2" x="17.35" y="53.25" width="8.14" height="4.88" rx="2.44"/></g></g></svg>