<svg xmlns="http://www.w3.org/2000/svg" viewBox="0 0 88.82 147.38"><defs><style>.cls-1{fill:#a4d5e0;}.cls-2{fill:#a3e2da;}.cls-3,.cls-4{fill:none;stroke:#000;stroke-miterlimit:10;}.cls-3{stroke-width:1.87px;}.cls-4{stroke-width:1.72px;}</style></defs><title>pentool</title><g id="Layer_2" data-name="Layer 2"><g id="Layer_1-2" data-name="Layer 1"><path class="cls-1" d="M51.17,20.77,71.63,68.71C73,71.85,74.3,75,75.69,78.11a5.51,5.51,0,0,1,.18,4.2Q71.22,96.11,66.66,110a2.45,2.45,0,0,1-2.76,2q-16.27-.09-32.56,0a2.45,2.45,0,0,1-2.75-2q-4.48-13.74-9.13-27.43a6.33,6.33,0,0,1,.29-4.83q11.61-27,23.15-54c.41-1,.79-2,1.19-2.95l.64-.64c.05.75.14,1.51.14,2.26,0,15.57,0,31.13,0,46.7a4.09,4.09,0,0,1-2.1,4.06,8.3,8.3,0,0,0-3.48,9.94A8.73,8.73,0,0,0,56,82.85,8.34,8.34,0,0,0,52.27,73a3.69,3.69,0,0,1-1.91-3.69c0-13.59,0-27.18,0-40.77,0-2.81.08-5.62.13-8.42Z"/><g id="Y5wjF1"><path class="cls-2" d="M41.2,81.85a3.26,3.26,0,1,1,4.71-4.52,3.26,3.26,0,0,1-4.71,4.52Z"/></g><path class="cls-1" d="M24.92,145.07q0-9.66,0-19.33c0-3.62,1-4.65,4.52-4.66q17.24,0,34.48,0c3.53,0,4.51,1,4.52,4.65,0,6.44,0,12.89,0,19.33l-2.31,2.31h-39Z"/><g id="Y5wjF1-2" data-name="Y5wjF1"><path class="cls-3" d="M47.14,18.46l21,49.15c1.38,3.22,2.74,6.45,4.16,9.65a5.67,5.67,0,0,1,.18,4.3Q67.69,95.7,63,109.9a2.51,2.51,0,0,1-2.82,2q-16.7-.09-33.39,0a2.51,2.51,0,0,1-2.82-2q-4.6-14.1-9.37-28.13a6.49,6.49,0,0,1,.31-5Q26.84,49.19,38.66,21.49c.43-1,.81-2,1.22-3l.66-.66c.05.78.14,1.55.14,2.33,0,16,0,31.91,0,47.87a4.18,4.18,0,0,1-2.15,4.17A8.48,8.48,0,0,0,35,82.36a8.94,8.94,0,0,0,17.08-.24A8.57,8.57,0,0,0,48.27,72a3.77,3.77,0,0,1-2-3.78c0-13.94,0-27.87,0-41.81,0-2.87.09-5.75.13-8.63Z"/><path class="cls-3" d="M21.71,141.66q0-9.66,0-19.33c0-3.62,1-4.65,4.52-4.66q17.23,0,34.48,0c3.53,0,4.51,1,4.52,4.65,0,6.44,0,12.89,0,19.33L63,144H24Z"/><path class="cls-3" d="M41.2,81.85a3.26,3.26,0,1,1,4.71-4.52,3.26,3.26,0,0,1-4.71,4.52Z"/></g><rect x="38.76" width="10.58" height="10.58"/><line class="cls-4" x1="2.72" y1="3.6" x2="86.1" y2="3.6"/><circle cx="86.1" cy="3.6" r="2.72"/><circle cx="2.72" cy="3.6" r="2.72"/></g></g></svg>